<svg width="204" height="239" viewBox="0 0 204 239" fill="none" xmlns="http://www.w3.org/2000/svg">
<path d="M170.292 100.893C170.292 108.841 163.847 115.285 155.896 115.285C147.945 115.285 141.5 108.841 141.5 100.893C141.5 92.9441 147.945 86.5 155.896 86.5C163.847 86.5 170.292 92.9441 170.292 100.893Z" stroke="#DADADA" stroke-opacity="0.59" stroke-width="3"/>
<circle cx="37" cy="229" r="8.5" stroke="#DADADA" stroke-opacity="0.59" stroke-width="3"/>
<circle cx="194" cy="161" r="8.5" stroke="#DADADA" stroke-opacity="0.59" stroke-width="3"/>
<path d="M186.292 15.8927C186.292 23.8412 179.847 30.2853 171.896 30.2853C163.945 30.2853 157.5 23.8412 157.5 15.8927C157.5 7.94411 163.945 1.5 171.896 1.5C179.847 1.5 186.292 7.94411 186.292 15.8927Z" stroke="#DADADA" stroke-opacity="0.59" stroke-width="3"/>
<circle cx="21.5" cy="122.5" r="20" stroke="#DADADA" stroke-opacity="0.59" stroke-width="3"/>
<path d="M142.5 202.993C142.5 222.042 127.054 237.485 108 237.485C88.9459 237.485 73.5 222.042 73.5 202.993C73.5 183.943 88.9459 168.5 108 168.5C127.054 168.5 142.5 183.943 142.5 202.993Z" stroke="#DADADA" stroke-opacity="0.59" stroke-width="3"/>
<path d="M131.499 194.795C132.104 194.686 132.508 194.106 132.366 193.509C131.827 191.234 130.906 189.064 129.638 187.092C128.169 184.809 126.265 182.837 124.035 181.29C121.804 179.742 119.29 178.649 116.637 178.073C114.346 177.575 111.99 177.471 109.67 177.763C109.061 177.839 108.66 178.421 108.769 179.025V179.025C108.878 179.629 109.456 180.027 110.066 179.954C112.098 179.712 114.16 179.81 116.165 180.245C118.533 180.76 120.776 181.735 122.767 183.117C124.758 184.498 126.457 186.257 127.767 188.295C128.877 190.021 129.69 191.917 130.174 193.905C130.32 194.502 130.895 194.904 131.499 194.795V194.795Z" fill="#DADADA" fill-opacity="0.59"/>
<path d="M102.509 51C102.509 62.3215 93.3292 71.5 82.0046 71.5C70.6799 71.5 61.5 62.3215 61.5 51C61.5 39.6785 70.6799 30.5 82.0046 30.5C93.3292 30.5 102.509 39.6785 102.509 51Z" stroke="#DADADA" stroke-opacity="0.59" stroke-width="3"/>
<path d="M96.3681 45.9893C96.7375 45.9226 96.9847 45.5685 96.8982 45.2032C96.5688 43.8125 96.0053 42.4861 95.2304 41.2813C94.3328 39.8857 93.1691 38.6805 91.8056 37.7345C90.4421 36.7885 88.9056 36.1203 87.2838 35.768C85.8837 35.4639 84.4437 35.4004 83.0253 35.5785C82.6529 35.6253 82.4077 35.9807 82.4744 36.3501V36.3501C82.5412 36.7194 82.8946 36.9625 83.2672 36.9182C84.5096 36.7703 85.7695 36.8299 86.9952 37.0962C88.4425 37.4106 89.8137 38.0069 91.0306 38.8511C92.2474 39.6953 93.286 40.7709 94.087 42.0164C94.7654 43.0711 95.2621 44.2302 95.5583 45.4454C95.6472 45.8101 95.9987 46.0561 96.3681 45.9893V45.9893Z" fill="#DADADA" fill-opacity="0.59"/>
</svg>
