<svg width="669" height="152" viewBox="0 0 669 152" fill="none" xmlns="http://www.w3.org/2000/svg">
<g filter="url(#filter0_d)">
<path d="M2.91758 14.5448C1.92522 7.79091 7.13319 0.999997 13.9597 0.998294C262.803 0.93623 404.267 -0.752503 657.896 0.924931C663.8 0.963982 668.471 6.08576 667.859 11.9588L661.834 69.8595C661.764 70.5334 661.762 71.2126 661.829 71.8868L667.904 132.812C668.491 138.697 663.787 143.804 657.872 143.804C407.758 143.804 262.411 143.804 12.7485 143.804C6.28697 143.804 1.4185 137.774 2.77976 131.457C5.52443 118.721 9.2869 99.5371 9.08967 90.9022C8.76044 76.4881 2.23107 62.3311 3.63587 47.9387C4.96762 34.2947 4.12517 22.7636 2.91758 14.5448Z" fill="white"/>
<path d="M3.90696 14.3995C2.99178 8.17081 7.82008 1.99983 13.9599 1.99829C99.688 1.97691 172.67 1.76249 241.883 1.55914C373.583 1.1722 491.636 0.825353 657.889 1.92491C663.215 1.96013 667.414 6.58104 666.865 11.8552L660.839 69.756C660.762 70.4972 660.76 71.2444 660.834 71.986L666.909 132.911C667.436 138.197 663.207 142.804 657.872 142.804H656.408H654.946H653.487H652.029H650.575H649.122H647.672H646.224H644.779H643.336H641.895H640.456H639.02H637.586H636.154H634.725H633.297H631.872H630.45H629.029H627.611H626.195H624.781H623.369H621.96H620.552H619.147H617.744H616.343H614.944H613.547H612.153H610.76H609.37H607.981H606.595H605.211H603.829H602.449H601.07H599.694H598.32H596.948H595.578H594.21H592.844H591.48H590.118H588.758H587.399H586.043H584.689H583.336H581.985H580.637H579.29H577.945H576.602H575.261H573.921H572.584H571.248H569.914H568.582H567.252H565.923H564.596H563.272H561.948H560.627H559.307H557.989H556.673H555.359H554.046H552.735H551.425H550.117H548.811H547.507H546.204H544.903H543.604H542.306H541.009H539.715H538.422H537.13H535.84H534.552H533.265H531.98H530.696H529.414H528.134H526.854H525.577H524.301H523.026H521.753H520.481H519.211H517.942H516.675H515.409H514.144H512.881H511.619H510.359H509.1H507.842H506.586H505.331H504.078H502.825H501.574H500.325H499.077H497.83H496.584H495.339H494.096H492.854H491.614H490.374H489.136H487.899H486.663H485.429H484.196H482.963H481.732H480.503H479.274H478.046H476.82H475.595H474.371H473.147H471.926H470.705H469.485H468.266H467.049H465.832H464.616H463.402H462.188H460.976H459.764H458.554H457.344H456.136H454.928H453.722H452.516H451.311H450.108H448.905H447.703H446.502H445.302H444.102H442.904H441.707H440.51H439.314H438.119H436.925H435.732H434.539H433.347H432.156H430.966H429.777H428.588H427.4H426.213H425.027H423.841H422.656H421.472H420.289H419.106H417.924H416.742H415.561H414.381H413.201H412.022H410.844H409.667H408.489H407.313H406.137H404.962H403.787H402.613H401.439H400.266H399.093H397.921H396.75H395.579H394.408H393.238H392.068H390.899H389.73H388.562H387.394H386.227H385.06H383.893H382.727H381.561H380.396H379.231H378.066H376.902H375.738H374.574H373.411H372.248H371.085H369.923H368.761H367.599H366.437H365.276H364.115H362.954H361.793H360.633H359.473H358.313H357.153H355.993H354.834H353.675H352.516H351.357H350.198H349.039H347.88H346.722H345.564H344.405H343.247H342.089H340.931H339.773H338.615H337.457H336.299H335.141H333.983H332.825H331.667H330.509H329.351H328.193H327.035H325.877H324.719H323.56H322.402H321.244H320.085H318.926H317.768H316.609H315.449H314.29H313.131H311.971H310.811H309.651H308.491H307.331H306.17H305.01H303.848H302.687H301.526H300.364H299.202H298.039H296.877H295.714H294.55H293.387H292.223H291.058H289.894H288.729H287.563H286.398H285.232H284.065H282.898H281.731H280.563H279.395H278.226H277.057H275.887H274.717H273.547H272.376H271.204H270.032H268.86H267.687H266.513H265.339H264.164H262.989H261.813H260.637H259.46H258.282H257.104H255.925H254.745H253.565H252.384H251.203H250.021H248.838H247.655H246.47H245.286H244.1H242.914H241.727H240.539H239.35H238.161H236.971H235.78H234.589H233.396H232.203H231.009H229.814H228.618H227.422H226.224H225.026H223.827H222.627H221.426H220.224H219.021H217.817H216.613H215.407H214.201H212.993H211.785H210.576H209.365H208.154H206.941H205.728H204.514H203.298H202.082H200.864H199.646H198.426H197.205H195.983H194.76H193.536H192.311H191.085H189.858H188.629H187.399H186.168H184.936H183.703H182.469H181.233H179.996H178.758H177.519H176.278H175.037H173.794H172.549H171.304H170.057H168.809H167.559H166.309H165.057H163.803H162.548H161.292H160.035H158.776H157.516H156.254H154.991H153.727H152.461H151.194H149.925H148.655H147.383H146.11H144.836H143.56H142.282H141.003H139.723H138.441H137.157H135.872H134.586H133.298H132.008H130.717H129.424H128.129H126.833H125.535H124.236H122.935H121.633H120.328H119.022H117.715H116.406H115.095H113.782H112.468H111.152H109.834H108.514H107.193H105.87H104.545H103.219H101.891H100.56H99.2286H97.8949H96.5594H95.222H93.8828H92.5418H91.1989H89.8542H88.5075H87.159H85.8086H84.4563H83.1021H81.746H80.3879H79.0279H77.666H76.3021H74.9362H73.5684H72.1985H70.8267H69.4529H68.077H66.6991H65.3192H63.9373H62.5533H61.1672H59.7791H58.3889H56.9966H55.6022H54.2057H52.8071H51.4063H50.0035H48.5984H47.1913H45.7819H44.3704H42.9567H41.5408H40.1227H38.7024H37.2799H35.8552H34.4282H32.999H31.5675H30.1337H28.6977H27.2594H25.8188H24.3759H22.9307H21.4831H20.0332H18.581H17.1264H15.6695H14.2102H12.7485C6.92415 142.804 2.53026 137.362 3.75731 131.668C5.13114 125.293 6.76141 117.296 8.02401 109.808C9.2822 102.346 10.1905 95.3039 10.0894 90.8793C9.94248 84.4465 8.57977 78.0655 7.24193 71.801C7.05678 70.9341 6.87211 70.0693 6.6912 69.207C5.19349 62.0678 3.94509 55.0646 4.63114 48.0358C5.97207 34.2978 5.12422 22.684 3.90696 14.3995Z" stroke="#1C1C1D" stroke-width="2"/>
</g>
<defs>
<filter id="filter0_d" x="2.55078" y="0.18457" width="665.403" height="151.619" filterUnits="userSpaceOnUse" color-interpolation-filters="sRGB">
<feFlood flood-opacity="0" result="BackgroundImageFix"/>
<feColorMatrix in="SourceAlpha" type="matrix" values="0 0 0 0 0 0 0 0 0 0 0 0 0 0 0 0 0 0 127 0"/>
<feOffset dy="8"/>
<feColorMatrix type="matrix" values="0 0 0 0 0.125 0 0 0 0 0.125 0 0 0 0 0.125 0 0 0 1 0"/>
<feBlend mode="normal" in2="BackgroundImageFix" result="effect1_dropShadow"/>
<feBlend mode="normal" in="SourceGraphic" in2="effect1_dropShadow" result="shape"/>
</filter>
</defs>
</svg>
