<svg width="781" height="790" viewBox="0 0 781 790" fill="none" xmlns="http://www.w3.org/2000/svg">
<path d="M706.985 385.068H409.343V788.505H706.985V385.068Z" fill="#F8F8F8"/>
<path d="M780.222 385.068H706.986V788.505H780.222V385.068Z" fill="#D3D3D3"/>
<path d="M706.985 471.081H409.343" stroke="#D3D3D3" stroke-miterlimit="10"/>
<path d="M486.949 741.482H429.374V769.754H486.949V741.482Z" stroke="#C3C7CC" stroke-width="0.98" stroke-miterlimit="10"/>
<path d="M558.823 430.651C558.823 433.423 558.001 436.132 556.461 438.436C554.922 440.741 552.733 442.537 550.173 443.597C547.612 444.658 544.795 444.935 542.077 444.395C539.358 443.854 536.862 442.519 534.902 440.56C532.942 438.6 531.608 436.103 531.067 433.385C530.526 430.667 530.804 427.85 531.865 425.289C532.925 422.729 534.721 420.54 537.025 419C539.33 417.461 542.039 416.639 544.81 416.639C548.527 416.639 552.091 418.115 554.719 420.743C557.347 423.371 558.823 426.935 558.823 430.651Z" fill="#D3D3D3"/>
<path d="M604.901 430.651C604.901 433.423 604.079 436.132 602.539 438.436C601 440.741 598.811 442.537 596.251 443.597C593.69 444.658 590.873 444.935 588.155 444.395C585.437 443.854 582.94 442.519 580.98 440.56C579.02 438.6 577.686 436.103 577.145 433.385C576.605 430.667 576.882 427.85 577.943 425.289C579.003 422.729 580.799 420.54 583.104 419C585.408 417.461 588.117 416.639 590.889 416.639C594.605 416.639 598.169 418.115 600.797 420.743C603.425 423.371 604.901 426.935 604.901 430.651Z" fill="#D3D3D3"/>
<path d="M686.297 414.125H626.455V447.178H686.297V414.125Z" stroke="#C3C7CC" stroke-width="0.98" stroke-miterlimit="10"/>
<path d="M508.379 407.653H421.131V453.606H508.379V407.653Z" fill="#50545C"/>
<path d="M554.289 718.032C612.559 718.032 659.795 670.796 659.795 612.526C659.795 554.257 612.559 507.02 554.289 507.02C496.02 507.02 448.783 554.257 448.783 612.526C448.783 670.796 496.02 718.032 554.289 718.032Z" fill="#93979D"/>
<path d="M583.73 684.556C623.51 668.298 642.578 622.871 626.319 583.091C610.061 543.311 564.634 524.243 524.854 540.501C485.075 556.759 466.007 602.187 482.265 641.967C498.523 681.746 543.95 700.814 583.73 684.556Z" fill="#50545C"/>
<path d="M342.165 718.032C400.435 718.032 447.671 670.796 447.671 612.526C447.671 554.257 400.435 507.02 342.165 507.02C283.896 507.02 236.659 554.257 236.659 612.526C236.659 670.796 283.896 718.032 342.165 718.032Z" fill="#C3C7CC"/>
<path d="M417.817 630.522C427.768 588.716 401.946 546.759 360.14 536.807C318.335 526.855 276.377 552.678 266.426 594.483C256.474 636.289 282.296 678.246 324.102 688.198C365.907 698.15 407.865 672.327 417.817 630.522Z" fill="#F8F8F8"/>
<path d="M719.474 301.735H646.814V385.068H719.474V301.735Z" fill="#E1AA2D"/>
<path d="M698.29 301.735H625.631V385.068H698.29V301.735Z" fill="#FFC636"/>
<path d="M632.556 338.044V369.572L691.367 350.531V316.901L632.556 338.044Z" fill="white"/>
<path d="M578.153 362.403H443.344C437.608 362.403 432.958 367.053 432.958 372.789V374.684C432.958 380.42 437.608 385.07 443.344 385.07H578.153C583.888 385.07 588.538 380.42 588.538 374.684V372.789C588.538 367.053 583.888 362.403 578.153 362.403Z" fill="#FFB0BC"/>
<path d="M562.699 345.174H460.16C455.79 345.174 452.247 348.716 452.247 353.087V354.488C452.247 358.858 455.79 362.401 460.16 362.401H562.699C567.069 362.401 570.612 358.858 570.612 354.488V353.087C570.612 348.716 567.069 345.174 562.699 345.174Z" fill="#19FFE3"/>
<path d="M571.271 327.947H468.732C464.362 327.947 460.819 331.49 460.819 335.86V337.261C460.819 341.632 464.362 345.174 468.732 345.174H571.271C575.641 345.174 579.184 341.632 579.184 337.261V335.86C579.184 331.49 575.641 327.947 571.271 327.947Z" fill="#FFB0BC"/>
<path d="M171.297 336.067C188.8 336.067 202.99 321.878 202.99 304.374C202.99 286.871 188.8 272.681 171.297 272.681C153.793 272.681 139.604 286.871 139.604 304.374C139.604 321.878 153.793 336.067 171.297 336.067Z" fill="#1D0A03"/>
<path d="M200.722 330.669C200.722 330.669 193.757 313.73 181.599 318.305C169.441 322.879 168.946 337.469 175.335 341.466C181.723 345.464 198.579 332.358 198.579 332.358L200.722 330.669Z" fill="#FFB0BC"/>
<path d="M208.634 426.157L179.62 465.97L145.701 440.417L189.346 380.617L208.634 426.157Z" fill="#B86658"/>
<path d="M193.426 447.014C193.921 446.313 188.027 417.464 188.027 417.464L204.307 432.094L193.426 447.014Z" fill="#9B493C"/>
<path d="M251.415 341.301C251.415 341.301 271.445 351.48 264.232 378.393C264.232 378.393 258.792 397.845 250.714 425.829C249.753 429.317 248.018 432.543 245.639 435.268C243.259 437.993 240.296 440.146 236.969 441.568C233.643 442.989 230.038 443.643 226.424 443.48C222.811 443.316 219.28 442.341 216.095 440.625C206.874 435.484 198.896 428.379 192.727 419.812L184.113 404.646C165.609 363.762 207.852 320.9 248.489 339.982L251.415 341.301Z" fill="#B86658"/>
<path d="M253.023 401.844L259.741 415.568C261.142 417.793 259.452 421.214 257.597 420.843L247.665 418.824L253.023 401.844Z" fill="#B86658"/>
<path d="M253.062 382.843C253.062 382.843 260.439 383.915 259.985 387.253C259.985 387.253 259.614 389.479 253.185 388.407C246.756 387.336 245.19 386.429 244.943 384.286C244.695 382.143 249.641 382.019 253.062 382.843Z" fill="#1D0A03"/>
<path d="M246.55 400.194C246.305 400.556 246.137 400.966 246.06 401.396C245.982 401.827 245.995 402.27 246.099 402.695C246.203 403.12 246.394 403.519 246.662 403.866C246.929 404.212 247.266 404.499 247.651 404.707C248.036 404.916 248.46 405.041 248.897 405.075C249.333 405.11 249.772 405.052 250.184 404.907C250.597 404.761 250.975 404.53 251.293 404.23C251.611 403.929 251.863 403.565 252.032 403.161C252.371 402.443 252.433 401.624 252.205 400.863C251.976 400.102 251.474 399.452 250.795 399.04C250.078 398.636 249.231 398.53 248.436 398.746C247.642 398.962 246.964 399.482 246.55 400.194Z" fill="#1D0A03"/>
<path d="M246.717 425.377L243.008 423.975" stroke="#1D0A03" stroke-width="0.61" stroke-linecap="round" stroke-linejoin="round"/>
<path d="M208.265 380.124C208.265 380.124 216.054 311.587 263.573 355.396C263.573 355.396 253.063 313.317 197.261 319.211C190.792 320.197 184.614 322.571 179.151 326.171C173.687 329.771 169.067 334.511 165.609 340.065C156.913 356.962 162.023 375.344 169.071 408.397L194.582 392.612C198.655 387.945 203.246 383.755 208.265 380.124Z" fill="#1D0A03"/>
<path d="M196.311 355.56L199.072 385.687C277.377 385.687 255.493 342.166 255.493 342.166C255.493 342.166 203.111 306.805 196.311 355.56Z" fill="#1D0A03"/>
<path d="M228.171 379.546L213.458 391.333L206.369 369.902L228.171 379.546Z" fill="#1D0A03"/>
<path d="M244.077 342.455C244.077 342.455 267.239 354.201 265.466 372.293C265.466 372.293 290.194 353.212 255.204 339.323C231.548 330.462 244.077 342.455 244.077 342.455Z" fill="#1D0A03"/>
<path d="M187.08 378.063C185.998 380.778 185.745 383.753 186.352 386.613C186.96 389.472 188.401 392.088 190.493 394.129C192.586 396.17 195.236 397.546 198.109 398.082C200.983 398.619 203.951 398.292 206.639 397.143C209.327 395.995 211.615 394.075 213.213 391.628C214.811 389.18 215.649 386.314 215.62 383.391C215.591 380.468 214.696 377.619 213.05 375.204C211.403 372.788 209.078 370.915 206.368 369.82C202.717 368.357 198.634 368.403 195.017 369.948C191.401 371.494 188.546 374.413 187.08 378.063Z" fill="#B86658"/>
<path d="M205.749 388.86C205.749 388.86 209.87 378.887 199.649 376.496" stroke="#1D0A03" stroke-width="0.61" stroke-linecap="round" stroke-linejoin="round"/>
<path d="M193.797 766.168L219.349 696.764L267.981 689.428L233.691 766.703L200.803 773.71L193.797 766.168Z" fill="#B86658"/>
<path d="M202.699 742.018C202.699 742.018 210.53 754.382 243.418 745.274L293.863 772.846C295.309 773.749 296.423 775.098 297.037 776.689C297.651 778.28 297.732 780.027 297.267 781.668C296.802 783.309 295.817 784.754 294.46 785.787C293.103 786.819 291.447 787.383 289.742 787.394L207.315 787.147C204.673 787.14 202.075 786.476 199.753 785.217C197.431 783.957 195.458 782.141 194.012 779.93C192.565 777.72 191.69 775.185 191.466 772.552C191.241 769.92 191.674 767.274 192.725 764.85L202.699 742.018Z" fill="#F8F8F8"/>
<path d="M85.1592 717.085L130.824 655.429L171.996 671.132L114.998 737.609L87.4671 726.687L85.1592 717.085Z" fill="#B86658"/>
<path d="M140.508 763.201L122.374 729.53C93.8131 736.207 90.8457 709.294 90.8457 709.294C90.8457 709.294 63.5213 723.595 60.6363 730.354C59.2831 733.571 59.251 737.19 60.5468 740.43C61.8427 743.669 64.3623 746.268 67.5602 747.664L106.301 780.181C113.263 784.829 121.385 787.441 129.751 787.723L153.366 788.506C155.191 788.575 156.97 787.928 158.325 786.704C159.679 785.48 160.503 783.776 160.62 781.954C160.703 780.773 160.486 779.591 159.989 778.517C159.491 777.443 158.73 776.513 157.776 775.813L140.508 763.201Z" fill="#F8F8F8"/>
<path d="M128.558 592.165L252.197 527.418C261.152 522.704 271.337 520.85 281.378 522.107C291.419 523.363 300.833 527.67 308.349 534.445C315.866 541.22 321.123 550.138 323.411 559.995C325.7 569.852 324.91 580.174 321.147 589.568L270.95 714.609L200.104 709.952L233.858 626.866L191.738 668.409C191.738 668.409 134.039 720.874 84.5829 702.122C35.1269 683.37 29.2334 629.133 29.2334 629.133L128.558 592.165Z" fill="#19FFE3"/>
<path d="M233.856 626.868L241.028 607.168" stroke="#13454E" stroke-width="0.75" stroke-miterlimit="10"/>
<path d="M186.71 449.981L157.531 439.431C150.394 436.802 142.617 436.456 135.275 438.442C114.174 444.129 71.3947 462.51 43.7405 520.168C2.52721 606.139 15.5919 652.957 15.5919 652.957C15.5919 652.957 116.07 646.198 141.993 584.873C141.993 584.873 136.058 564.266 146.114 555.364C146.114 555.364 174.716 550.748 189.43 511.142L191.078 456.328C191.107 454.946 190.701 453.589 189.917 452.45C189.133 451.311 188.011 450.448 186.71 449.981Z" fill="#FFB0BC"/>
<path d="M382.925 574.652C382.925 574.652 372.663 514.398 422.49 523.382C472.317 532.367 462.302 556.93 487.277 588.334C487.277 588.334 542.256 636.101 463.332 652.998C384.409 669.896 423.768 596 382.925 574.652Z" fill="#FFC636"/>
<path d="M382.885 604.776C377.872 604.405 373.081 602.555 369.119 599.462C365.156 596.369 362.199 592.171 360.621 587.398C359.043 582.625 358.915 577.491 360.254 572.646C361.593 567.8 364.337 563.46 368.142 560.174C371.946 556.888 376.639 554.803 381.627 554.183C386.616 553.562 391.677 554.435 396.17 556.689C400.663 558.944 404.387 562.48 406.871 566.85C409.355 571.221 410.489 576.229 410.127 581.243C409.893 584.58 409.001 587.838 407.503 590.829C406.005 593.82 403.93 596.486 401.399 598.673C398.867 600.86 395.928 602.525 392.751 603.572C389.574 604.62 386.221 605.029 382.885 604.776Z" fill="#B86658"/>
<path d="M403.574 562.287C403.574 562.287 407.696 551.489 394.549 549.511C381.402 547.533 363.185 552.231 359.353 577.578L403.574 562.287Z" fill="#B86658"/>
<path d="M370.521 554.868L234.517 547.367C218.485 546.872 212.344 557.918 213.539 573.95C214.046 581.097 217.369 587.75 222.779 592.448C228.188 597.147 235.241 599.506 242.389 599.007L365.122 594.886L370.521 554.868Z" fill="#FFB0BC"/>
<path d="M190.338 453.358L256.815 550.951C268.107 564.263 272.764 583.675 258.463 593.689C252.314 598.022 244.745 599.849 237.296 598.8C229.847 597.751 223.077 593.905 218.363 588.043L148.3 508.007C137.791 494.942 133.463 462.672 147.064 453.028C159.263 444.085 185.021 447.918 190.338 453.358Z" fill="#FFB0BC"/>
<path d="M173.974 537.434L141.992 498.405" stroke="#FF5BAD" stroke-width="0.75" stroke-miterlimit="10"/>
<path d="M373.309 128.347L0 129.128L0.0453164 150.765L373.355 149.984L373.309 128.347Z" fill="#D3D3D3"/>
<path d="M170.844 128.393V45.0601L214.324 9.32812L222.649 21.8158V128.393H170.844Z" fill="#19FFE3"/>
<path d="M209.171 13.5323L200.228 1.16833C199.997 0.856489 199.706 0.594421 199.371 0.39781C199.037 0.201199 198.666 0.0740943 198.281 0.0240753C197.896 -0.0259437 197.505 0.00215524 197.132 0.106708C196.758 0.211261 196.409 0.39012 196.106 0.632565L186.421 8.50431C186.117 8.74172 185.863 9.0369 185.674 9.3729C185.484 9.70889 185.363 10.0791 185.317 10.4621C185.271 10.8451 185.301 11.2335 185.406 11.6048C185.51 11.9761 185.687 12.323 185.927 12.6256L195.447 24.9896L209.171 13.5323Z" fill="#19FFE3" fill-opacity="0.83"/>
<path d="M109.229 21.6521H91.3836C89.9 22.1467 73.5383 33.027 67.6035 46.3801C61.6688 59.7332 55.2396 84.997 61.6688 128.353H118.543C118.543 128.353 132.515 84.5436 109.229 21.6521ZM87.1387 59.0738C87.1387 59.0738 85.2016 63.5248 83.7592 87.5522C83.7592 87.5522 83.0585 96.6603 76.4644 94.5173C69.8703 92.3742 68.7987 79.021 71.6425 66.6983C74.4862 54.3755 79.8851 50.2129 83.5943 50.2129C87.3035 50.2129 87.9629 55.7767 87.1387 59.0738Z" fill="#FFC636"/>
<path d="M94.9281 4.13477H105.685C106.625 4.13477 107.526 4.50819 108.191 5.17288C108.856 5.83758 109.229 6.7391 109.229 7.67912V21.4856H91.3837V7.84397C91.3614 7.36484 91.4366 6.88615 91.6047 6.43692C91.7728 5.98769 92.0303 5.57726 92.3617 5.23047C92.6931 4.88369 93.0914 4.60776 93.5325 4.41942C93.9737 4.23108 94.4484 4.13425 94.9281 4.13477Z" fill="#19FFE3"/>
<path d="M279.275 21.6094L264.521 128.393H313.482L301.242 21.6094H279.275Z" fill="#FFB0BC"/>
<path d="M286.611 8.91724H294.483C295.171 8.91724 295.832 9.1908 296.319 9.67772C296.806 10.1646 297.079 10.8251 297.079 11.5137V21.6109H284.015V11.5137C284.015 10.8251 284.288 10.1646 284.775 9.67772C285.262 9.1908 285.922 8.91724 286.611 8.91724Z" fill="#52D6ED"/>
<path d="M296.325 774.319C292.171 768.501 277.332 764.093 277.332 764.093C277.332 764.093 276.862 771.325 275.871 775.78C274.764 780.762 267.105 787.468 267.105 787.468H286.098C289.02 787.468 292.678 788.166 294.864 786.007C296.68 784.215 297.786 782.715 297.786 780.163C297.786 777.612 298.411 777.241 296.325 774.319Z" fill="#FFC134"/>
<path d="M201.362 775.78C196.72 768.034 195.518 761.171 194.057 761.171C192.596 761.171 191.135 771.398 191.135 771.398C191.135 771.398 191.387 778.442 194.057 781.624C196.195 784.173 198.245 784.844 201.362 786.007C204.087 787.025 208.667 787.468 210.128 787.468C211.588 787.469 204.905 781.694 201.362 775.78Z" fill="#FFC134"/>
<path d="M158.993 775.781C154.839 769.962 142.922 765.554 142.922 765.554C142.922 765.554 139.53 772.786 138.539 777.242C137.432 782.223 128.312 787.468 128.312 787.468C128.312 787.468 143.061 788.929 148.766 788.929C151.688 788.929 155.346 789.627 157.532 787.468C159.348 785.676 160.454 784.176 160.454 781.624C160.454 779.073 161.079 778.703 158.993 775.781Z" fill="#FFC134"/>
<path d="M69.2859 736.401C71.3698 727.614 76.7651 719.821 75.7189 718.801C74.6728 717.781 66.953 723.184 66.953 723.184C66.953 723.184 59.9581 727.808 59.6482 731.95C59.3999 735.267 59.6481 740.715 62.1473 743.724C64.0062 745.962 68.8289 748.461 69.875 749.481C70.9211 750.501 67.6951 743.109 69.2859 736.401Z" fill="#FFC134"/>
</svg>
