<svg width="320" height="258" viewBox="0 0 320 258" fill="none" xmlns="http://www.w3.org/2000/svg">
<path d="M202.155 11.018C191.793 42.535 195.576 83.4373 185.184 114.924L204.602 122.397C210.06 124.453 215.642 126.611 221.255 125.347C225.305 124.432 229.19 121.79 233.169 120.002C239.655 117.072 246.337 116.414 252.967 115.766C252.545 80.4768 253.224 45.0844 255.023 9.78442L202.155 11.018Z" fill="#FF97A6"/>
<path d="M106.279 19.2642C109.209 19.0372 112.15 19.5253 114.85 20.6865C117.558 21.8566 119.778 23.928 121.133 26.5489C122.559 29.7941 122.791 33.4392 121.788 36.8391C120.772 40.2034 119.391 43.4466 117.67 46.5108C116.39 48.7601 115.437 51.1795 114.837 53.6966C114.536 54.9533 114.49 56.2578 114.702 57.5326C114.915 58.8073 115.381 60.0264 116.074 61.1174C116.813 62.2102 117.896 63.0251 119.15 63.4328C120.405 63.8406 121.76 63.8179 123 63.3684C121.405 66.0894 117.892 66.9304 114.751 67.2519C110.435 67.6972 106.084 67.6599 101.777 67.1406C100.415 67.042 99.083 66.6984 97.8437 66.1265C95.9645 65.0373 94.5778 63.2652 93.9725 61.1793C93.4075 59.0874 93.137 56.9269 93.1686 54.7603C93.0119 48.3537 93.1562 41.9512 93.6015 35.5528C93.8117 32.6463 93.9106 29.6286 94.2322 26.7468C94.4796 24.57 96.644 22.8014 98.4126 21.713C100.798 20.2717 103.497 19.4314 106.279 19.2642V19.2642Z" fill="#032123"/>
<path d="M78.6361 66.2129C67.1523 51.421 60.8703 33.2532 60.7644 14.5271C60.2791 14.2023 59.6866 14.0788 59.112 14.1826C58.5374 14.2865 58.0256 14.6095 57.6848 15.0836C57.1257 16.0495 56.8714 17.1617 56.955 18.2746C56.6295 38.7491 63.6102 58.6696 76.6449 74.4623L78.6361 66.2129Z" fill="#F9B377"/>
<path d="M87.0098 239.872C85.4957 240.203 84.0171 240.679 82.5944 241.294C80.8047 241.953 79.2566 243.139 78.1543 244.695C78.1543 244.695 79.6014 246.711 93.5401 244.782C93.625 243.621 93.4907 242.455 93.1443 241.344C92.9585 240.72 92.7227 240.112 92.4393 239.525L91.7344 232.896L87.0593 233.255C87.0593 233.255 88.6671 239.031 87.0098 239.872Z" fill="#F9B377"/>
<path d="M82.5944 241.306C80.8047 241.965 79.2566 243.151 78.1543 244.708C78.1543 244.708 79.6014 246.724 93.5401 244.794C93.625 243.633 93.4907 242.467 93.1443 241.356C92.3688 241.713 91.5243 241.894 90.6707 241.888C89.6441 241.95 88.6176 241.987 87.5911 241.987C85.8974 242.08 84.2015 241.849 82.5944 241.306V241.306Z" fill="#767676"/>
<path d="M96.0002 140.841C94.9366 147.236 93.2174 153.754 93.1308 160.234C92.9742 173.542 92.8093 186.854 92.6361 200.171C92.5619 206.924 92.4795 213.681 92.3888 220.442C92.3888 223.818 92.3145 227.207 92.2651 230.584C92.2651 231.573 92.6856 234.145 91.9806 234.85C91.2757 235.555 88.8391 235.506 87.825 235.32C87.5846 235.296 87.3567 235.201 87.1695 235.048C87.0484 234.897 86.9596 234.722 86.9085 234.535C86.8575 234.348 86.8453 234.152 86.8727 233.96C86.8727 231.635 87.0458 229.248 86.8727 226.935C86.6995 224.622 86.3655 221.988 86.0316 219.514C85.3885 214.752 84.5969 209.991 83.8672 205.242C81.777 191.637 80.2311 177.921 78.6851 164.229C78.0502 158.589 77.4111 152.884 76.768 147.112C76.0383 140.681 75.3209 134.076 76.8793 127.793C78.7963 120.076 84.1022 113.013 83.5457 105.073H95.9136L96.0002 140.841Z" fill="#484848"/>
<path d="M103.397 239.872C104.911 240.203 106.39 240.679 107.812 241.294C109.598 241.954 111.142 243.14 112.24 244.695C112.24 244.695 110.793 246.711 96.8544 244.782C96.7781 243.62 96.9164 242.455 97.2625 241.344C97.4428 240.718 97.6788 240.109 97.9675 239.525L98.6725 232.896L103.348 233.255C103.348 233.255 101.74 239.031 103.397 239.872Z" fill="#F9B377"/>
<path d="M107.812 241.306C109.598 241.966 111.142 243.152 112.24 244.708C112.24 244.708 110.793 246.724 96.8544 244.794C96.7781 243.633 96.9164 242.467 97.2625 241.356C98.0372 241.715 98.8823 241.897 99.7361 241.888C100.763 241.95 101.789 241.987 102.816 241.987C104.509 242.079 106.205 241.848 107.812 241.306V241.306Z" fill="#767676"/>
<path d="M94.4062 140.841C95.4699 147.236 97.189 153.754 97.2633 160.234C97.4364 173.542 97.6013 186.854 97.758 200.171C97.8487 206.924 97.9311 213.681 98.0053 220.442C98.0053 223.818 98.0919 227.207 98.129 230.584C98.129 231.573 97.7085 234.145 98.4135 234.85C99.1184 235.555 101.567 235.506 102.569 235.32C102.81 235.296 103.037 235.201 103.225 235.048C103.347 234.897 103.438 234.723 103.491 234.536C103.544 234.349 103.559 234.153 103.534 233.96C103.534 231.635 103.361 229.248 103.534 226.935C103.707 224.622 104.053 221.988 104.375 219.514C105.018 214.752 105.822 209.991 106.552 205.242C108.642 191.637 110.188 177.921 111.734 164.229C112.377 158.532 113.024 152.826 113.676 147.112C114.393 140.681 115.11 134.076 113.552 127.793C111.635 120.076 106.341 113.013 106.886 105.073H94.5176L94.4062 140.841Z" fill="#484848"/>
<path d="M77.2382 60.9193C77.4361 61.5254 74.7646 64.9637 74.4307 65.6686C73.4434 67.4802 72.6991 69.4138 72.2168 71.4197C71.3139 75.5383 73.268 79.0384 74.5543 82.8972C77.6835 92.3413 77.6835 102.543 74.5543 111.987C79.5015 116.402 89.3217 116.204 95.4686 115.833C99.7731 115.584 104.033 114.824 108.158 113.57C110.459 112.865 116.494 112.333 114.218 109.018C111.609 105.308 111.028 100.522 110.916 95.9578C110.796 93.0692 110.887 90.1756 111.188 87.3002C111.535 84.6287 111.473 81.8336 112.314 79.2363C112.858 77.579 113.711 76.0577 114.404 74.4746C116.655 69.3543 116.766 64.0361 116.531 58.557C116.568 58.1235 116.464 57.6897 116.234 57.3202C116.004 57.1116 115.724 56.9648 115.421 56.8934C115.118 56.822 114.803 56.8285 114.503 56.9121C111.819 57.2708 108.319 58.8291 106.785 61.2409C106.204 62.5687 105.531 63.854 104.769 65.0873C103.79 66.2597 102.587 67.2265 101.232 67.932C96.8043 70.2572 90.8058 70.1829 86.0318 69.008C83.9798 68.562 82.0836 67.5777 80.5381 66.1561C78.9926 64.7345 77.8536 62.927 77.2382 60.9193Z" fill="#19FFE3"/>
<path d="M81.8639 52.2C81.8639 52.5216 81.8639 52.8431 81.8639 53.1647C81.9326 54.8554 82.2665 56.5248 82.8534 58.1119C83.458 59.7118 84.5477 61.0827 85.9701 62.0325C87.556 62.9004 89.3454 63.3275 91.1523 63.2693C93.4969 63.3446 95.8397 63.0695 98.1031 62.4531C100.326 61.9911 102.335 60.8086 103.817 59.089C105.648 56.6154 105.561 53.4492 106.13 50.6045C106.925 47.4232 107.03 44.1087 106.439 40.8833C105.116 35.0209 99.2781 30.2839 93.3167 30.9889C89.7547 31.397 85.2899 33.5985 84.1644 37.2842C82.5875 42.097 81.8103 47.1358 81.8639 52.2V52.2Z" fill="#F9B377"/>
<path d="M90.324 56.2815C90.6332 56.2815 89.9035 62.4655 89.8046 63.0344C89.4706 64.8649 89.0377 67.2148 87.6031 68.5258C87.1825 68.9303 86.6618 69.2156 86.0945 69.3526C85.5273 69.4895 84.9338 69.4731 84.375 69.305C85.4015 71.9394 89.3222 73.0154 91.7958 73.3617C94.6447 73.8605 97.5675 73.7424 100.367 73.0154C101.427 72.7141 102.41 72.1851 103.245 71.4652C104.08 70.7453 104.748 69.852 105.203 68.8474L101.406 68.7113C100.647 68.7659 99.8927 68.5609 99.2661 68.13C98.2519 67.2148 98.3261 64.7041 98.1653 63.4178C97.9318 61.1092 98.078 58.7779 98.5982 56.5165L90.324 56.2815Z" fill="#F9B377"/>
<path d="M80.1332 32.7576C78.1914 35.6641 77.7461 39.3003 77.5854 42.7881C77.3751 47.4013 77.5854 52.2619 80.059 56.2197C80.6031 50.9633 82.7181 45.4224 87.2942 42.7881C88.565 42.2263 89.758 41.5029 90.8438 40.636C91.9679 39.3405 92.633 37.7102 92.7361 35.998C93.1244 33.8255 93.0782 31.5976 92.6001 29.443C92.1054 27.8228 90.7944 27.8475 89.236 27.8723C87.4407 27.9096 85.6797 28.3718 84.0975 29.221C82.5152 30.0702 81.1567 31.2821 80.1332 32.7576V32.7576Z" fill="#042B30"/>
<path d="M89.2725 43.5178C91.9296 45.9515 95.1188 47.7304 98.5856 48.7124C99.6773 48.9515 100.706 49.4194 101.603 50.0852C102.044 50.5312 102.382 51.0673 102.596 51.6565C102.809 52.2458 102.893 52.8743 102.84 53.4988C102.742 54.7567 102.389 55.9813 101.801 57.0979C100.453 59.9084 98.4973 62.384 96.0749 64.3455C98.4303 64.2395 100.722 63.5465 102.741 62.3295C105.6 61.006 108.291 59.3451 110.756 57.3823C113.226 55.3969 115.016 52.6905 115.876 49.64C116.193 48.1777 116.338 46.6835 116.309 45.1875C116.434 42.9364 116.093 40.6837 115.307 38.5706C114.07 35.7136 111.498 33.6853 108.95 31.9043C108.639 31.7181 108.369 31.4697 108.158 31.1746C108.012 30.9078 107.908 30.6199 107.849 30.3212C107.385 28.9872 106.619 27.7784 105.611 26.7894C104.602 25.8003 103.379 25.0577 102.036 24.6196C99.3431 23.773 96.4938 23.5448 93.7002 23.9517C92.4339 24.0507 91.1863 24.3169 89.9898 24.7432C81.9754 27.9466 84.3377 38.7314 89.2725 43.5178Z" fill="#042B30"/>
<path d="M89.4096 10.1241C89.7292 9.87212 89.9979 9.5615 90.2012 9.20891C90.5627 8.6337 90.7168 7.95227 90.6381 7.27749C90.5594 6.6027 90.2525 5.97505 89.7683 5.49851C89.3943 5.19553 88.9775 4.94963 88.5315 4.7688C86.7518 3.8285 84.878 3.07817 82.9412 2.5302C81.0489 2.07258 79.8368 2.60441 77.994 3.04965C77.6849 3.10727 77.3853 3.20715 77.1035 3.34648C76.5945 3.69647 76.1716 4.15742 75.8667 4.69459C74.9126 6.04425 73.7763 7.25543 72.4902 8.29368C72.5916 8.55837 72.7809 8.7802 73.0263 8.92204C73.2717 9.06389 73.5584 9.11713 73.8383 9.07286C74.3974 8.95309 74.9116 8.67884 75.3225 8.28131C75.9994 7.63428 76.7274 7.04283 77.4993 6.51269C79.4658 5.3501 80.9376 6.73531 82.7309 7.5887C82.9557 7.66795 83.1473 7.8204 83.2751 8.02158C83.4977 8.4792 82.9659 8.93681 82.4959 9.15944C81.4096 9.66408 80.2304 9.93783 79.0329 9.96336C78.4835 9.92235 77.9312 9.97675 77.4003 10.1241C77.1495 10.2103 76.9362 10.3805 76.7965 10.6059C76.6567 10.8312 76.5992 11.098 76.6335 11.3609C76.8809 12.0659 77.8703 12.0535 78.6124 12.0906C79.3544 12.1278 80.4181 12.4122 81.3457 12.4617C82.7252 12.4276 84.0838 12.1163 85.3405 11.5465C86.7381 11.1383 88.2965 11.0641 89.4096 10.1241Z" fill="#F9B377"/>
<path d="M89.607 5.5603C96.5331 13.9953 105.364 20.6245 114.343 26.9074C115.02 27.2414 115.576 27.7785 115.933 28.4437C116.29 29.1089 116.43 29.869 116.334 30.6178C116.854 39.7103 116.817 48.826 116.223 57.914C116.204 59.9556 115.659 61.9578 114.64 63.7269C113.49 65.409 111.177 66.4726 109.359 65.5574C108.84 65.2624 108.387 64.8645 108.027 64.3881C107.668 63.9117 107.41 63.3668 107.268 62.787C106.996 61.6453 106.88 60.4721 106.922 59.2992C106.922 49.4048 106.922 39.5393 106.922 29.7026C104.602 29.3799 102.441 28.3424 100.738 26.7343C95.0175 22.1335 90.2635 16.4463 86.75 10.0004L89.607 5.5603Z" fill="#F9B377"/>
<path opacity="0.2" d="M98.1531 62.5273C95.4965 63.4415 92.6618 63.7169 89.8789 63.3313C89.8789 63.3313 91.5857 68.8598 98.1531 62.5273Z" fill="#020202"/>
<path d="M87.0252 47.5024C87.0252 47.5024 89.0609 47.3504 89.0659 48.2063C89.0659 48.2063 89.0612 48.7874 87.2831 48.8773C85.505 48.9672 85.053 48.827 84.8976 48.2874C84.7423 47.7478 86.0754 47.5037 87.0252 47.5024Z" fill="#0B181B"/>
<path d="M95.2008 47.6599C95.2008 47.6599 93.5347 47.4578 93.3833 48.2612C93.3833 48.2612 93.2951 48.8003 94.7734 48.9602C96.2517 49.1201 96.7184 48.9194 96.8655 48.4883C97.0126 48.0572 96.0079 47.6826 95.2008 47.6599Z" fill="#0B181B"/>
<path d="M93.947 51.714C93.9413 51.8255 93.9575 51.937 93.9949 52.0422C94.0323 52.1474 94.09 52.2442 94.1647 52.3271C94.2395 52.4099 94.3298 52.4773 94.4306 52.5252C94.5314 52.5732 94.6407 52.6008 94.7522 52.6065C94.8636 52.6123 94.9751 52.596 95.0803 52.5587C95.1855 52.5213 95.2823 52.4636 95.3652 52.3888C95.4481 52.314 95.5154 52.2237 95.5634 52.1229C95.6113 52.0221 95.6389 51.9129 95.6447 51.8014C95.6486 51.5783 95.5676 51.362 95.4182 51.1963C95.2687 51.0306 95.0619 50.9279 94.8395 50.9089C94.6149 50.8995 94.3956 50.9785 94.2287 51.1291C94.0618 51.2796 93.9607 51.4897 93.947 51.714V51.714Z" fill="#0B181B"/>
<path d="M86.4703 51.3596C86.4664 51.5827 86.5474 51.799 86.6968 51.9647C86.8463 52.1304 87.0532 52.2331 87.2755 52.2521C87.4515 52.2671 87.6279 52.2289 87.7818 52.1423C87.9358 52.0557 88.0601 51.9248 88.1387 51.7666C88.2173 51.6084 88.2464 51.4303 88.2224 51.2553C88.1983 51.0804 88.1222 50.9167 88.0039 50.7855C87.8856 50.6544 87.7306 50.5618 87.559 50.52C87.3874 50.4781 87.2072 50.4889 87.0418 50.5508C86.8764 50.6127 86.7334 50.7229 86.6315 50.8672C86.5296 51.0114 86.4734 51.183 86.4703 51.3596V51.3596Z" fill="#0B181B"/>
<path d="M91.2492 53.1715L90.5351 55.3946L91.9191 55.7287" stroke="#0B181B" stroke-width="0.51" stroke-linecap="round" stroke-linejoin="round"/>
<path d="M90 59.738C90.519 60.0193 91.1051 60.153 91.6948 60.1245C92.2844 60.0961 92.855 59.9066 93.3444 59.5766" stroke="#0B181B" stroke-width="0.51" stroke-linecap="round" stroke-linejoin="round"/>
<path d="M3 5.18018C3 5.18018 172.892 20.3365 306 6.04536" stroke="white" stroke-width="1.24" stroke-miterlimit="10"/>
<path d="M15.8597 6.11652C15.7448 9.70851 15.8099 13.304 16.055 16.8895C19.4192 17.227 22.7996 17.3745 26.1803 17.3315C27.0233 29.502 26.0147 41.7299 23.189 53.5977C22.9814 54.2078 22.9564 54.8651 23.1171 55.4892C23.5385 56.5993 24.9468 56.8666 26.1187 56.9694C37.9984 57.9434 49.9477 57.6608 61.7681 56.1265L59.3936 30.9005C58.8524 26.2367 58.6086 21.5431 58.6637 16.8484C61.4354 17.1927 64.239 17.1927 67.0107 16.8484C67.0587 12.9833 67.2266 9.11815 67.5144 5.25304L54.0071 4.06061C53.4494 3.96287 52.8789 3.96287 52.3212 4.06061C51.5594 4.34256 50.8607 4.77225 50.2653 5.325C48.0034 6.98997 45.2613 7.87394 42.4529 7.84348C39.554 7.84348 37.5187 6.10624 34.8357 5.68478C33.2527 5.49975 15.8494 6.64078 15.8597 6.11652Z" fill="#FFBD12"/>
<path d="M57.1931 5.09858C57.1448 5.48922 57.1979 5.88572 57.3473 6.24988C57.4217 6.43188 57.556 6.58304 57.7279 6.67837C57.8999 6.7737 58.0993 6.80749 58.293 6.77414C58.807 6.63023 58.9509 5.9929 59.0023 5.46864C59.0743 4.67712 59.7938 2.46701 58.6117 2.44645C57.4295 2.42589 57.2342 4.33789 57.1931 5.09858Z" fill="#F9B377"/>
<path d="M55.8663 2.2408C55.6817 2.29877 55.5172 2.40766 55.3918 2.55495C55.2663 2.70225 55.1849 2.88197 55.157 3.07344C55.1791 3.00735 55.1875 2.93746 55.1817 2.86803C55.176 2.79859 55.1561 2.73105 55.1234 2.66952C55.0908 2.60798 55.0459 2.55374 54.9916 2.51008C54.9373 2.46642 54.8747 2.43426 54.8075 2.41555C54.6695 2.38663 54.5266 2.39112 54.3907 2.42868C54.2548 2.46623 54.1299 2.53575 54.0263 2.63142C53.5254 3.19543 53.2669 3.93406 53.3067 4.68733C53.3067 5.06767 53.3067 5.54053 53.6254 5.71528C53.7527 5.77047 53.894 5.78528 54.03 5.75771C54.166 5.73014 54.2903 5.66151 54.3861 5.56109C54.5782 5.35758 54.7253 5.11591 54.8178 4.8518C54.7788 5.15045 54.8141 5.45411 54.9206 5.73584C54.9754 5.87578 55.0772 5.9923 55.2085 6.06544C55.3397 6.13858 55.4924 6.16379 55.6402 6.13674C55.9589 6.03395 56.0719 5.66389 56.1336 5.33494C56.2364 4.79013 57.1307 1.96325 55.8663 2.2408Z" fill="#F9B377"/>
<path d="M50.666 4.43049C50.5963 4.51323 50.55 4.6131 50.532 4.71974C50.5139 4.82637 50.5247 4.9359 50.5632 5.03698C50.6259 5.11949 50.7093 5.18389 50.8051 5.22362C50.9008 5.26334 51.0053 5.27698 51.108 5.26313C51.3749 5.25949 51.6381 5.19998 51.8807 5.08844C52.1232 4.9769 52.3398 4.8158 52.5163 4.61552C52.8452 4.21462 53.1742 2.71381 52.3004 2.71381C51.7761 2.67269 50.9127 4.02958 50.666 4.43049Z" fill="#F9B377"/>
<path d="M31.5357 0H29.9629V7.10316H31.5357V0Z" fill="#042B30"/>
<path d="M145.76 32.862C145.682 33.3202 145.761 33.7913 145.986 34.1984C146.174 34.4044 146.403 34.5699 146.657 34.6848C146.912 34.7997 147.187 34.8615 147.466 34.8665C153.205 35.7242 159.006 36.0955 164.807 35.9767C165.311 36.0127 165.816 35.9244 166.277 35.7197C167.932 34.8562 167.182 32.0499 168.549 30.7753C169.272 32.1129 169.686 33.595 169.762 35.1132C175.768 35.3499 181.782 35.1645 187.762 34.5581C188.208 26.705 186.483 18.8807 182.776 11.9431C178.222 11.9333 173.672 11.6346 169.156 11.0488C168.592 12.5541 168.158 14.1052 167.861 15.6849C166.684 14.3935 165.792 12.8704 165.239 11.2133C165.239 11.2133 156.728 11.2133 155.905 11.2647C152.236 11.2647 152.061 12.1385 150.416 15.469C147.73 20.9021 146.147 26.8136 145.76 32.862V32.862Z" fill="#042B30"/>
<path d="M171.88 14.5953C171.88 14.392 171.82 14.1933 171.707 14.0242C171.594 13.8552 171.433 13.7234 171.246 13.6456C171.058 13.5678 170.851 13.5475 170.652 13.5871C170.452 13.6268 170.269 13.7247 170.125 13.8685C169.982 14.0122 169.884 14.1954 169.844 14.3948C169.804 14.5942 169.825 14.8009 169.902 14.9887C169.98 15.1766 170.112 15.3371 170.281 15.4501C170.45 15.563 170.649 15.6233 170.852 15.6233C171.125 15.6233 171.386 15.515 171.579 15.3222C171.772 15.1294 171.88 14.868 171.88 14.5953Z" fill="#032123"/>
<path d="M168.425 33.6946C168.271 34.3011 168.127 34.8973 167.983 35.5038C167.953 35.6559 167.897 35.8019 167.819 35.9356C167.648 36.147 167.407 36.2894 167.14 36.3365C166.58 36.4578 166.007 36.513 165.434 36.501C161.925 36.5626 158.42 36.5626 154.918 36.501C151.88 36.5759 148.848 36.1948 145.923 35.3702C145.68 35.3095 145.459 35.1812 145.286 35.0001C145.135 34.7502 145.074 34.4568 145.111 34.1675C145.111 33.6124 144.885 32.1116 145.204 31.6593C145.522 31.207 146.663 31.6593 147.136 31.7929C148.832 32.1733 150.549 32.5022 152.276 32.8209C155.679 33.3526 159.112 33.6753 162.555 33.7872C164.509 33.7769 166.462 33.7769 168.425 33.6946Z" fill="#032123"/>
<path d="M169.228 35.7916C169.224 35.8573 169.242 35.9223 169.279 35.9767C169.312 36.0082 169.35 36.0328 169.393 36.0487C169.435 36.0646 169.481 36.0716 169.526 36.0692C175.933 36.3745 182.354 36.1235 188.718 35.3188L188.533 32.8619C188.535 32.8341 188.532 32.8061 188.523 32.7796C188.514 32.753 188.5 32.7286 188.481 32.7078C188.457 32.6973 188.431 32.6919 188.404 32.6919C188.378 32.6919 188.351 32.6973 188.327 32.7078C182.612 33.2217 176.876 33.5096 171.129 33.5404C170.556 33.456 169.972 33.491 169.413 33.6432C169.022 33.8488 169.135 34.0235 169.166 34.4964L169.228 35.7916Z" fill="#032123"/>
<path d="M149.553 20.6192C150.796 19.9202 151.876 18.9634 152.719 17.8129C153.152 17.2465 153.554 16.6562 153.922 16.0448C154.302 15.4486 154.734 14.8729 155.165 14.2973L155.299 14.1328L155.433 14.2151C155.782 14.4001 156.121 14.5954 156.461 14.8113V14.8729C156.069 14.8057 155.681 14.7165 155.299 14.6057L155.566 14.5234C155.257 15.1814 154.896 15.8138 154.487 16.4149C154.057 17.0031 153.597 17.5692 153.109 18.111C152.157 19.2247 150.961 20.104 149.614 20.6809L149.553 20.6192Z" fill="#1C1B2D"/>
<path d="M184.956 21.1536C183.665 20.5909 182.444 19.8803 181.317 19.036C180.753 18.5813 180.246 18.0601 179.806 17.4838C179.369 16.8758 179.086 16.17 178.984 15.4279L179.22 15.5924C178.833 15.6129 178.446 15.6129 178.059 15.5924V15.5307C178.429 15.3868 178.788 15.2737 179.159 15.1606H179.333L179.405 15.3662C179.659 15.9865 179.976 16.579 180.351 17.1343C180.712 17.7103 181.143 18.2387 181.636 18.7071C182.675 19.6351 183.8 20.4613 184.997 21.1742L184.956 21.1536Z" fill="#1C1B2D"/>
<path d="M182.426 12.519C178.16 12.7316 173.883 12.5527 169.649 11.9844L169.762 11.9125C169.129 13.4877 168.747 15.1528 168.631 16.8466C168.498 18.5325 168.436 20.2389 168.395 21.9864L168.22 27.1262V28.4009V29.3157C168.292 29.4699 168.107 29.3157 168.282 29.4082C169.113 29.552 169.959 29.5935 170.8 29.5316L170.687 29.655L171.047 22.4593C171.047 21.8631 171.047 21.2566 171.15 20.6604L171.386 18.8717C171.543 17.681 171.931 16.5323 172.527 15.4897C171.968 16.5468 171.619 17.7023 171.499 18.8923L171.314 20.6706C171.314 21.2668 171.314 21.8733 171.232 22.4696L170.944 29.6652V29.768H170.841C169.984 29.8367 169.121 29.8022 168.271 29.6652H168.189C168.189 29.6652 168.189 29.6652 168.056 29.5933C167.922 29.5213 168.056 29.4905 168.004 29.4494V27.0337L168.138 21.8939C168.2 20.1875 168.272 18.4914 168.436 16.7541C168.552 15.067 168.934 13.4087 169.567 11.8405V11.7686H169.649C173.882 12.354 178.154 12.605 182.426 12.519V12.519Z" fill="#1C1B2D"/>
<path d="M164.386 11.7581C162.546 11.9123 160.706 11.9432 158.866 11.974C157.026 12.0048 155.186 11.974 153.336 11.8712C155.186 11.7273 157.026 11.6964 158.866 11.6553C160.706 11.6142 162.546 11.645 164.386 11.7581Z" fill="#1C1B2D"/>
<path d="M162.37 12.375C162.42 12.6086 162.451 12.8458 162.463 13.0843C162.463 13.3105 162.463 13.5263 162.463 13.7525C162.463 13.9786 162.463 14.1945 162.391 14.4207C162.353 14.6506 162.298 14.8774 162.227 15.0991V15.0991C162.115 14.1862 162.163 13.2608 162.37 12.3647V12.375Z" fill="#1C1B2D"/>
<path d="M160.984 12.488C161.038 12.7143 161.072 12.9447 161.087 13.1768C161.087 13.3926 161.087 13.6085 161.087 13.8244C161.087 14.0402 161.087 14.2561 161.004 14.472C160.969 14.7001 160.911 14.924 160.83 15.1402V15.1402C160.737 14.2536 160.789 13.3579 160.984 12.488V12.488Z" fill="#1C1B2D"/>
<path d="M174.614 12.9197C174.717 13.6342 174.635 14.363 174.378 15.0373V15.0373C174.364 14.8525 174.364 14.6669 174.378 14.4822C174.378 14.3074 174.378 14.1429 174.378 13.9682C174.378 13.7934 174.378 13.6392 174.47 13.4645C174.51 13.2807 174.568 13.1015 174.645 12.93L174.614 12.9197Z" fill="#1C1B2D"/>
<path d="M175.991 13.0227C176.113 13.7605 176.032 14.5175 175.755 15.2122V15.2122C175.74 15.0206 175.74 14.8282 175.755 14.6366C175.755 14.4618 175.755 14.2871 175.755 14.1123C175.755 13.9376 175.755 13.7731 175.837 13.5984C175.875 13.4086 175.93 13.2227 176.002 13.0433L175.991 13.0227Z" fill="#1C1B2D"/>
<path d="M157.704 6.49512H156.131V13.5983H157.704V6.49512Z" fill="#FFB0BC"/>
<path d="M180.888 7.0249L179.395 6.53027L177.161 13.273L178.654 13.7677L180.888 7.0249Z" fill="#FFB0BC"/>
<path d="M201.187 11.0489C204.661 18.3988 204.785 29.0792 204.672 38.8859C204.281 72.1984 203.02 105.494 200.889 138.772C206.789 140.304 212.833 137.909 218.816 136.788C230.052 134.681 241.277 137.045 252.492 138.094C255.648 138.553 258.861 138.424 261.97 137.713C265.763 136.685 269.392 134.105 273.092 132.132C280.147 128.219 288.251 126.62 296.262 127.557C295.721 105.031 295.649 82.4609 296.046 59.8459C296.365 42.2987 296.951 24.3198 293.99 7.79028L201.187 11.0489Z" fill="#FFB0BC"/>
<path d="M205.674 235.901C203.638 233.724 200.863 232.386 197.892 232.149C195.178 232.046 192.331 233.177 189.812 232.149C188.611 231.535 187.52 230.726 186.585 229.754C181.578 225.251 174.599 222.322 168.081 223.987C167.869 224.016 167.676 224.122 167.537 224.285C167.491 224.394 167.467 224.511 167.467 224.63C167.467 224.748 167.491 224.865 167.537 224.974C167.845 226.197 168.184 227.41 168.493 228.623V229.487C169.757 234.349 168.657 239.591 170.477 244.279H210.947C211.327 241.76 207.318 237.536 205.674 235.901Z" fill="#FFBD12"/>
<path d="M191.878 199.059C190.069 202.03 188.27 205.011 186.584 208.054C185.42 209.86 184.676 211.905 184.405 214.037C184.435 215.919 184.743 217.786 185.32 219.577C187.011 226.647 186.582 234.059 184.086 240.887C183.922 241.339 183.757 241.915 184.086 242.254C184.332 242.486 184.653 242.621 184.991 242.634C194.356 244.032 203.895 245.43 213.229 243.888C213.743 243.859 214.232 243.656 214.617 243.313C214.945 242.85 215.094 242.284 215.038 241.719C215.092 233.795 216.265 225.919 218.523 218.323C219.235 216.36 219.799 214.347 220.209 212.299C220.507 210.387 220.455 208.393 221.237 206.605C222.018 204.816 223.293 203.521 223.724 201.722L191.878 199.059Z" fill="#FFB0BC"/>
<path d="M179.338 220.04C178.273 219.683 177.121 219.691 176.061 220.062C175.002 220.432 174.096 221.145 173.486 222.087C172.876 223.029 172.597 224.147 172.692 225.265C172.787 226.383 173.252 227.438 174.013 228.263C175.606 230.001 178.269 230.484 179.81 232.262C180.605 233.364 181.242 234.572 181.702 235.85C182.619 237.719 183.915 239.377 185.508 240.719C187.101 242.06 188.955 243.056 190.953 243.642C195.015 244.775 199.353 244.346 203.114 242.439C203.68 242.151 204.286 241.76 204.399 241.133C204.446 240.67 204.322 240.206 204.05 239.828C203.167 238.382 201.779 237.316 200.154 236.837C201.305 235.954 202.255 234.837 202.941 233.559C203.627 232.281 204.033 230.872 204.132 229.425C204.263 226.512 203.277 223.659 201.377 221.448C200.11 219.911 198.353 218.855 196.402 218.457C194.418 218.107 192.958 218.858 191.005 218.2C189.067 217.472 186.973 217.259 184.929 217.581C182.884 217.904 180.957 218.751 179.338 220.04V220.04Z" fill="#767676"/>
<path d="M163.404 203.099L170.59 244.135H217.125L224.742 203.952L163.404 203.099Z" stroke="#042B30" stroke-width="1.24" stroke-miterlimit="10" stroke-linecap="round"/>
<path d="M165.305 214.736L222.623 215.373" stroke="#042B30" stroke-width="1.24" stroke-miterlimit="10"/>
<path d="M167.844 229.333L219.241 230.175" stroke="#042B30" stroke-width="1.24" stroke-miterlimit="10"/>
<path d="M169.961 240.332L217.545 239.91" stroke="#042B30" stroke-width="1.24" stroke-miterlimit="10"/>
<path d="M173.98 203.099L177.989 243.929" stroke="#042B30" stroke-width="1.24" stroke-miterlimit="10"/>
<path d="M186.883 203.315V243.929" stroke="#042B30" stroke-width="1.24" stroke-miterlimit="10"/>
<path d="M198.939 203.315L198.086 244.351" stroke="#042B30" stroke-width="1.24" stroke-miterlimit="10"/>
<path d="M212.684 203.531L207.822 243.929" stroke="#042B30" stroke-width="1.24" stroke-miterlimit="10"/>
<path d="M226.746 204.23H161.78C161.455 204.231 161.134 204.168 160.834 204.045C160.534 203.921 160.261 203.74 160.032 203.51C159.803 203.281 159.621 203.008 159.498 202.708C159.374 202.409 159.311 202.087 159.313 201.763V201.763C159.311 201.438 159.374 201.117 159.498 200.817C159.621 200.517 159.803 200.245 160.032 200.015C160.261 199.786 160.534 199.604 160.834 199.481C161.134 199.357 161.455 199.294 161.78 199.296H226.746C227.071 199.294 227.392 199.357 227.692 199.481C227.992 199.604 228.264 199.786 228.494 200.015C228.723 200.245 228.905 200.517 229.028 200.817C229.152 201.117 229.215 201.438 229.213 201.763V201.763C229.215 202.087 229.152 202.409 229.028 202.708C228.905 203.008 228.723 203.281 228.494 203.51C228.264 203.74 227.992 203.921 227.692 204.045C227.392 204.168 227.071 204.231 226.746 204.23V204.23Z" fill="#042B30"/>
<path d="M194.18 199.326C197.213 199.326 200.255 199.326 203.298 199.326C206.538 203.546 208.187 208.773 207.955 214.088C207.672 219.361 206.587 224.561 204.737 229.507C203.935 231.902 203.123 234.709 204.542 236.795C205.181 237.616 206.063 238.212 207.062 238.5C208.061 238.789 209.126 238.753 210.103 238.399C212.055 237.623 213.619 236.103 214.451 234.174C215.26 232.26 215.779 230.237 215.993 228.171C217.383 218.619 217.728 208.943 217.021 199.316H224.443C224.185 198.743 223.783 198.247 223.277 197.874C222.772 197.501 222.178 197.265 221.555 197.188C220.292 197.155 219.03 197.265 217.792 197.517C211.388 198.36 205.107 196.222 198.724 196.109C192.021 196.006 185.432 197.291 178.679 196.859C174.392 196.582 169.92 195.965 165.952 197.579C165.117 197.857 164.352 198.315 163.713 198.921C163.074 199.526 162.575 200.265 162.252 201.084C161.748 202.76 162.817 204.929 164.575 205.032C165.393 204.998 166.191 204.765 166.898 204.353C175.646 200.221 184.846 199.45 194.18 199.326Z" fill="#19FFE3"/>
<path d="M76.9464 6.23394L71.7754 13.1235L73.321 14.2836L78.492 7.39402L76.9464 6.23394Z" fill="#042B30"/>
<path d="M234.733 6.49512H233.16V13.5983H234.733V6.49512Z" fill="#042B30"/>
<path d="M307.717 2.90747H306.145V10.0106H307.717V2.90747Z" fill="#042B30"/>
<path d="M4.5127 4.18018H0V257.18H4.5127V4.18018Z" fill="#042B30"/>
<path d="M309.513 3.18018H305V256.18H309.513V3.18018Z" fill="#042B30"/>
</svg>
