<svg width="277" height="53" viewBox="0 0 277 53" fill="none" xmlns="http://www.w3.org/2000/svg">
<g filter="url(#filter0_d)">
<path d="M0 10.8521C0 5.38744 4.3367 0.937584 9.80095 0.870847C41.7539 0.480595 143.711 -0.510163 193.5 2.00023C210.008 2.83254 221.627 3.12605 229.801 3.11567C237.107 3.10638 261.493 1.00023 268.799 1.00023V1.00023C273.328 1.00023 277 4.67195 277 9.20124V40.8448C277 46.428 272.428 50.9297 266.846 50.8436L82.5 48.0002L10.3634 50.6234C4.70182 50.8293 0 46.2953 0 40.63V10.8521Z" fill="white"/>
<path d="M82.5077 47.5003L82.4948 47.5001L82.4818 47.5006L10.3452 50.1237C4.96673 50.3193 0.5 46.0121 0.5 40.63V10.8521C0.5 5.65728 4.62044 1.43416 9.80706 1.37081C41.7657 0.980488 143.704 -0.00983307 193.475 2.49959C209.987 3.33216 221.617 3.62607 229.802 3.61567C233.454 3.61102 241.326 3.08672 249.19 2.56291L249.333 2.55336C257.267 2.02493 265.167 1.50023 268.799 1.50023C273.052 1.50023 276.5 4.94809 276.5 9.20124V40.8448C276.5 46.1488 272.157 50.4255 266.853 50.3437L82.5077 47.5003Z" stroke="#1C1C1D"/>
</g>
<defs>
<filter id="filter0_d" x="0" y="0.347168" width="277" height="52.4977" filterUnits="userSpaceOnUse" color-interpolation-filters="sRGB">
<feFlood flood-opacity="0" result="BackgroundImageFix"/>
<feColorMatrix in="SourceAlpha" type="matrix" values="0 0 0 0 0 0 0 0 0 0 0 0 0 0 0 0 0 0 127 0"/>
<feOffset dy="2"/>
<feColorMatrix type="matrix" values="0 0 0 0 0.12549 0 0 0 0 0.12549 0 0 0 0 0.12549 0 0 0 1 0"/>
<feBlend mode="normal" in2="BackgroundImageFix" result="effect1_dropShadow"/>
<feBlend mode="normal" in="SourceGraphic" in2="effect1_dropShadow" result="shape"/>
</filter>
</defs>
</svg>
