<svg width="720" height="553" viewBox="0 0 720 553" fill="none" xmlns="http://www.w3.org/2000/svg">
<path d="M245.556 4.79932H6.80469V279.64H245.556V4.79932Z" fill="#FFB0BC"/>
<path d="M112.571 4.79932V110.138H182.881L245.557 164.97V4.79932H112.571Z" fill="#FFE6E8"/>
<path d="M250.133 284.38H2.23145V0H250.133V284.38ZM11.4098 274.9H240.983V9.53857H11.4098V274.9Z" fill="white"/>
<path d="M245.556 163.667H6.80469V171.22H245.556V163.667Z" fill="white"/>
<path d="M29.823 152.766H26.6777V4.79932H29.823" fill="white"/>
<path d="M243.011 14.5149H6.80469V17.7734H243.011V14.5149Z" fill="white"/>
<path d="M243.011 25.0312H6.80469V28.2898H243.011V25.0312Z" fill="white"/>
<path d="M243.011 36.7322H6.80469V39.9907H243.011V36.7322Z" fill="white"/>
<path d="M243.011 48.6406H6.80469V51.8992H243.011V48.6406Z" fill="white"/>
<path d="M243.011 59.7195H6.80469V62.978H243.011V59.7195Z" fill="white"/>
<path d="M243.011 71.7761H6.80469V75.0346H243.011V71.7761Z" fill="white"/>
<path d="M243.011 84.4548H6.80469V87.7133H243.011V84.4548Z" fill="white"/>
<path d="M416.771 471.655L421.832 522.31L399.673 521.303L392.096 470.026L416.771 471.655Z" fill="#FFB9B4"/>
<path d="M423.492 516.772L463.894 535.849C465.179 536.516 466.208 537.614 466.815 538.963C467.423 540.313 467.572 541.836 467.239 543.284H395.985L398.616 516.446L423.492 516.772Z" fill="#001335"/>
<path d="M394.727 551.223H468.154V543.284H394.727V551.223Z" fill="white"/>
<path d="M392.296 242.315L426.608 505.603H388.922L340.257 249.425V236.124L392.296 242.315Z" fill="#123C5E"/>
<path d="M351.066 523.258C350.094 523.614 322.473 525.717 322.473 525.717C322.473 525.717 318.298 533.597 322.301 545.89C326.161 557.739 344.003 548.852 344.175 553C346.946 552.692 349.495 551.288 351.29 549.081C353.086 546.873 353.989 544.032 353.811 541.151C353.906 535.067 352.977 529.012 351.066 523.258Z" fill="white"/>
<path d="M347.321 516.741L329.25 517.156C329.25 517.156 317.813 525.154 321.787 537.477C325.762 549.8 343.661 545.89 343.661 545.89C346.412 545.384 348.884 543.837 350.596 541.549C352.308 539.26 353.138 536.395 352.925 533.508C353.057 527.404 351.068 521.454 347.321 516.741V516.741Z" fill="#001335"/>
<path d="M347.319 516.742L352.38 472.159L326.074 471.3L329.248 517.156L347.319 516.742Z" fill="#FFB9B4"/>
<path d="M310.004 225.52C310.004 225.52 292.849 237.161 302.97 330.947C313.092 424.733 320.326 505.722 320.326 505.722H356.296L358.012 235.443L310.004 225.52Z" fill="#123C5E"/>
<path d="M358.013 342.915L358.156 286.75" stroke="#24181E" stroke-width="0.75" stroke-miterlimit="10"/>
<path d="M421.948 158.72L440.247 215.003C443.106 223.416 442.392 232.777 434.185 235.443C430.597 236.661 426.702 236.463 423.246 234.889C419.79 233.315 417.016 230.474 415.457 226.912L388.122 172.435L421.948 158.72Z" fill="#FFB9B4"/>
<path d="M430.126 165.029L419.518 134.103C415.143 119.973 403.734 116.329 392.383 119.558C389.57 120.363 386.947 121.757 384.676 123.655C382.404 125.552 380.532 127.912 379.176 130.588C377.82 133.265 377.008 136.201 376.791 139.216C376.575 142.231 376.957 145.259 377.915 148.115L387.808 182.477L430.126 165.029Z" fill="#19FFE3"/>
<path d="M418.029 212.189C416.683 213.901 415.723 215.903 415.22 218.049C414.717 220.195 414.684 222.431 415.122 224.592C415.561 226.753 416.46 228.785 417.755 230.54C419.049 232.294 420.706 233.726 422.604 234.732L482.793 272.738L490.77 258.726L436.615 209.315C433.705 207.387 430.219 206.616 426.802 207.144C423.386 207.672 420.269 209.464 418.029 212.189V212.189Z" fill="#FFB9B4"/>
<path d="M479.647 255.142C479.647 255.142 517.133 249.01 521.794 270.99L482.564 271.197L479.647 255.142Z" fill="#FFB9B4"/>
<path d="M363.845 97.2817H327.246L299.054 231.325C299.054 231.325 332.565 249.514 394.24 242.226L411.396 121.958L388.521 104.006L363.845 97.2817Z" fill="#19FFE3"/>
<path d="M403.477 176.138L408.595 145.3" stroke="#5ABFE3" stroke-width="0.75" stroke-miterlimit="10"/>
<path d="M332.565 153.624L306.317 205.02C305.419 206.927 304.161 208.629 302.617 210.023C301.073 211.418 299.275 212.479 297.33 213.141C295.384 213.804 293.329 214.056 291.288 213.882C289.247 213.708 287.259 213.112 285.444 212.129V212.129C282.094 210.323 279.507 207.296 278.182 203.632C276.857 199.967 276.887 195.925 278.267 192.282L299.054 137.806L332.565 153.624Z" fill="#FFB9B4"/>
<path d="M329.936 158.72L345.176 130.608C347.678 125.337 348.155 119.279 346.509 113.659C344.863 108.038 341.219 103.275 336.312 100.333V100.333C333.794 98.8011 330.998 97.8218 328.1 97.456C325.201 97.0903 322.26 97.346 319.461 98.2072C316.662 99.0684 314.063 100.517 311.826 102.462C309.59 104.408 307.764 106.809 306.461 109.516L289.591 140.828L329.936 158.72Z" fill="#19FFE3"/>
<path d="M329.934 158.719L342.314 134.488" stroke="#5ABFE3" stroke-width="0.75" stroke-miterlimit="10"/>
<path d="M278.467 192.816C277.614 194.838 277.208 197.033 277.279 199.239C277.351 201.445 277.897 203.607 278.878 205.566C279.859 207.525 281.25 209.232 282.95 210.563C284.65 211.893 286.616 212.813 288.703 213.255L354.839 233.162L361.186 219.21L295.766 184.847C292.44 183.762 288.847 183.972 285.661 185.44C282.475 186.907 279.916 189.531 278.467 192.816V192.816Z" fill="#FFB9B4"/>
<path d="M407.393 244.507C404.885 241.622 401.82 239.313 398.397 237.732C394.974 236.15 391.269 235.33 387.521 235.324H359.843C359.013 235.769 340.285 250.876 342.229 262.696H423.119L407.393 244.507ZM365.161 255.142L368.02 243.678H385.691L397.128 255.142H365.161Z" fill="#E7E7E7"/>
<path d="M342.345 262.695L349.007 270.99H428.553L423.206 262.695H342.345Z" fill="#E7E7E7"/>
<path d="M423.204 262.695H342.314" stroke="#E7E7E7" stroke-width="0.63" stroke-miterlimit="10"/>
<path d="M361.187 219.209C361.187 219.209 392.297 224.956 390.438 247.559C390.438 247.559 390.438 251.528 383.404 251.469C373.883 251.469 369.88 251.469 368.135 243.678C368.135 243.678 350.837 237.753 350.351 230.17L361.187 219.209Z" fill="#FFB9B4"/>
<path d="M410.797 14.1301C410.797 14.1301 363.046 -12.5305 370.395 46.0043L382.547 28.8526L410.797 14.1301Z" fill="#1C1C1D"/>
<path d="M427.635 39.5172C427.635 39.5172 443.361 48.4041 417.027 63.9265L421.888 37.2659L427.635 39.5172Z" fill="#1C1C1D"/>
<path d="M409.309 64.015C408.703 65.6091 408.564 67.3531 408.909 69.0286C409.255 70.7042 410.07 72.2369 411.252 73.4349C412.435 74.6329 413.932 75.4429 415.557 75.7636C417.181 76.0842 418.861 75.9013 420.386 75.2377C421.911 74.5741 423.213 73.4593 424.129 72.0328C425.045 70.6063 425.534 68.9315 425.536 67.2181C425.538 65.5047 425.052 63.8288 424.139 62.4002C423.226 60.9716 421.926 59.8537 420.403 59.1866C418.312 58.3222 415.977 58.344 413.902 59.2473C411.826 60.1506 410.177 61.863 409.309 64.015V64.015Z" fill="#FF867A"/>
<path d="M395.984 81.9963L388.578 104.095C386.005 111.856 380.001 114.404 373.024 111.767C366.962 109.516 361.301 104.036 363.845 97.2817L374.453 62.386L395.984 81.9963Z" fill="#FFAE9E"/>
<path d="M389.638 101.103C389.638 101.103 366.763 86.2915 373.683 63.9262C375.713 57.2315 396.786 79.7745 396.786 79.7745L389.638 101.103Z" fill="#FF867A"/>
<path d="M386.835 89.0762C399.902 94.586 411.339 85.314 413.141 79.7153L424.578 54.2988C426.992 48.0906 426.991 41.1552 424.576 34.9474C422.161 28.7396 417.52 23.742 411.625 21.0027V21.0027C399.187 15.4929 382.518 20.825 377.085 34.1553L370.909 51.3662C368.26 58.5599 368.445 66.5437 371.424 73.5974C374.403 80.6511 379.938 86.21 386.835 89.0762V89.0762Z" fill="#FFAE9E"/>
<path d="M405.134 69.2581L403.962 74.5605L400.902 73.583" stroke="#0B181B" stroke-width="0.51" stroke-linecap="round" stroke-linejoin="round"/>
<path d="M396.784 51.3659C396.784 51.3659 401.931 52.6989 401.245 54.891C401.245 54.891 400.758 56.3722 396.298 55.0984C391.837 53.8246 390.837 53.084 390.894 51.5733C390.951 50.0625 394.439 50.5661 396.784 51.3659Z" fill="#0B181B"/>
<path d="M416.83 58.6827C416.83 58.6827 412.884 56.7572 411.854 58.6827C411.854 58.6827 411.197 59.9861 414.714 61.645C418.231 63.3038 419.546 63.1854 420.261 62.2078C420.976 61.2303 418.802 59.4232 416.83 58.6827Z" fill="#0B181B"/>
<path d="M410.424 67.9848C410.319 68.2649 410.268 68.5638 410.274 68.8642C410.28 69.1647 410.344 69.4609 410.461 69.736C410.577 70.0111 410.745 70.2595 410.955 70.4673C411.164 70.6751 411.411 70.8382 411.682 70.9471C411.952 71.056 412.241 71.1088 412.531 71.1022C412.821 71.0957 413.106 71.03 413.372 70.9089C413.637 70.7879 413.877 70.6139 414.078 70.3968C414.279 70.1797 414.436 69.9239 414.541 69.6438C414.733 69.0768 414.71 68.4554 414.476 67.9054C414.243 67.3555 413.816 66.918 413.283 66.6815C412.737 66.4675 412.131 66.4841 411.596 66.7279C411.062 66.9716 410.641 67.4229 410.424 67.9848V67.9848Z" fill="#0B181B"/>
<path d="M392.265 60.7566C392.074 61.3236 392.097 61.9449 392.33 62.4949C392.564 63.0448 392.99 63.4824 393.524 63.7189C393.945 63.9061 394.412 63.9575 394.863 63.8664C395.313 63.7752 395.727 63.5458 396.05 63.2079C396.373 62.87 396.59 62.4393 396.673 61.9717C396.757 61.5041 396.703 61.0213 396.518 60.586C396.333 60.1508 396.026 59.7832 395.637 59.5311C395.248 59.2789 394.794 59.154 394.336 59.1724C393.877 59.1908 393.434 59.3517 393.065 59.6342C392.696 59.9167 392.417 60.3079 392.265 60.7566V60.7566Z" fill="#0B181B"/>
<path d="M390.895 74.0869C391.542 75.2875 392.495 76.2811 393.649 76.9601C394.804 77.639 396.115 77.9772 397.442 77.9379" stroke="#0B181B" stroke-width="0.51" stroke-linecap="round" stroke-linejoin="round"/>
<path d="M374.854 50.2698C374.854 50.2698 381.831 54.7429 384.604 41.383C387.378 28.0231 390.323 30.2151 390.323 30.2151C390.323 30.2151 406.964 50.2402 426.321 46.9817C445.679 43.7231 442.219 19.4324 430.21 16.4109C418.201 13.3894 412.597 18.0401 412.597 18.0401L397.757 14.5742H381.859L374.968 27.1047L370.508 46.0338L374.854 50.2698Z" fill="#1C1C1D"/>
<path d="M359.442 48.878C358.457 51.2011 358.397 53.8331 359.275 56.2018C360.153 58.5705 361.898 60.4842 364.131 61.5269C365.249 62.0042 366.448 62.2471 367.657 62.2416C368.867 62.236 370.063 61.9821 371.177 61.4945C372.291 61.0069 373.301 60.2954 374.148 59.401C374.995 58.5065 375.662 57.447 376.112 56.2837C376.581 55.1497 376.83 53.9311 376.845 52.6974C376.86 51.4636 376.64 50.2389 376.198 49.0932C375.756 47.9476 375.1 46.9033 374.268 46.0201C373.437 45.1369 372.445 44.432 371.351 43.9458C370.256 43.4595 369.08 43.2013 367.889 43.186C366.698 43.1707 365.516 43.3986 364.41 43.8566C363.305 44.3146 362.297 44.9938 361.444 45.8553C360.592 46.7169 359.911 47.744 359.442 48.878V48.878Z" fill="#FFAE9E"/>
<path d="M369.623 56.5497C369.623 56.5497 372.253 50.0624 366.077 48.522" stroke="#0B181B" stroke-width="0.51" stroke-linecap="round" stroke-linejoin="round"/>
<path d="M412.654 28.0826C417.976 28.0826 422.29 23.613 422.29 18.0996C422.29 12.5862 417.976 8.1167 412.654 8.1167C407.333 8.1167 403.019 12.5862 403.019 18.0996C403.019 23.613 407.333 28.0826 412.654 28.0826Z" fill="#1C1C1D"/>
<path d="M363.847 97.2815L350.122 96.8667C350.122 96.8667 346.862 112.715 372.424 118.432C372.424 118.432 395.985 123.794 394.355 108.212L382.403 99.4735L363.847 97.2815Z" fill="#FFAE9E"/>
<path d="M257.851 286.868L499.118 552.23" stroke="#3A2C32" stroke-width="1.03" stroke-miterlimit="10"/>
<path d="M488.739 286.868L246.871 552.082" stroke="#3A2C32" stroke-width="1.03" stroke-miterlimit="10"/>
<path d="M606.715 285.121V278.248H598.395V279.433C585.785 276.204 562.997 277.034 562.997 277.034C514.646 279.403 203.24 277.034 203.24 277.034L180.194 289.92H167.956V296.792H572.118C572.118 296.792 609.518 296.496 606.715 285.121Z" fill="#CF8D79"/>
<path d="M167.956 289.919H572.118C572.118 289.919 612.377 289.653 606.229 276.974C602.255 268.739 562.997 270.19 562.997 270.19C514.646 272.56 203.24 270.19 203.24 270.19L167.956 289.919Z" fill="#F2C7B8"/>
<path d="M336.339 271.198L339.513 308.286L465.779 310.626L461.576 334.146L502.779 338.086L520.735 271.198H336.339Z" fill="#FFC636"/>
<path d="M212.702 505.781C212.702 505.781 208.07 454.978 175.017 468.397C141.963 481.816 117.316 460.488 97.8157 477.284C78.3153 494.08 71.8818 522.37 71.8818 522.37L207.355 544.409L212.702 505.781Z" fill="#FFC636"/>
<path d="M65.8506 531.612C65.8506 531.612 70.4826 480.898 103.536 494.228C136.59 507.558 161.237 486.319 180.737 503.115C200.238 519.911 206.671 548.142 206.671 548.142L70.5398 547.164L65.8506 531.612Z" fill="#19FFE3"/>
<path d="M45.1768 424.022L69.0233 548.142H206.67L230.517 419.964" stroke="#E7E7E7" stroke-width="1.54" stroke-miterlimit="10"/>
<path d="M118.233 424.021C117.232 424.584 122.693 548.141 122.693 548.141" stroke="white" stroke-width="1.54" stroke-miterlimit="10"/>
<path d="M82.0908 424.021C81.1187 424.584 90.9833 548.141 90.9833 548.141" stroke="white" stroke-width="1.54" stroke-miterlimit="10"/>
<path d="M194.004 424.021C194.976 424.584 180.708 548.141 180.708 548.141" stroke="white" stroke-width="1.54" stroke-miterlimit="10"/>
<path d="M158.463 426.125L152.001 548.142" stroke="white" stroke-width="1.54" stroke-miterlimit="10"/>
<path d="M242.754 415.461H33.1387V432.613H242.754V415.461Z" fill="#E7E7E7"/>
<path d="M212.703 515.675H62.79" stroke="white" stroke-width="1.54" stroke-miterlimit="10"/>
<path d="M218.022 487.119H57.3008" stroke="white" stroke-width="1.54" stroke-miterlimit="10"/>
<path d="M223.34 458.592H51.8105" stroke="white" stroke-width="1.54" stroke-miterlimit="10"/>
<path d="M0 552.082H720" stroke="#3A2C32" stroke-width="1.03" stroke-miterlimit="10"/>
</svg>
