<svg width="656" height="384" viewBox="0 0 656 384" fill="none" xmlns="http://www.w3.org/2000/svg">
<path fill-rule="evenodd" clip-rule="evenodd" d="M87.825 1.77153C74.3507 1.4131 63.2175 12.5266 63.6268 25.9994C64.7419 62.7019 66.6299 132.204 66.6299 182.022C66.6299 252.716 62.8281 363.045 62.8281 363.045H596.974C596.974 363.045 591.271 278.948 591.271 182.022C591.271 117.317 593.813 58.3281 595.502 26.2606C596.217 12.6973 585.336 1.33145 571.758 1.67898C508.572 3.29626 340.308 7.07689 225.353 4.80099C150.885 3.32667 109.972 2.36066 87.825 1.77153Z" fill="#F95A2C" stroke="#1C1C1D" stroke-width="2"/>
<path fill-rule="evenodd" clip-rule="evenodd" d="M83.3495 24.6262C81.6163 24.6021 80.2407 25.9894 80.3251 27.7207C81.1435 44.5073 84.9221 124.911 84.9221 178.555C84.9221 232.246 81.1368 312.746 80.3229 329.433C80.2393 331.148 81.6093 332.528 83.3257 332.528H576.545C578.235 332.528 579.594 331.189 579.548 329.5C579.108 313.24 577.065 235.083 577.014 182.973C576.96 127.635 579.096 44.5611 579.548 27.65C579.593 25.9453 578.323 24.5991 576.618 24.6213C553.184 24.9275 398.272 26.8903 296.16 26.6568C219.538 26.4816 103.903 24.9124 83.3495 24.6262Z" fill="#FF785C" stroke="#40424C"/>
<path fill-rule="evenodd" clip-rule="evenodd" d="M329.426 19.0548C331.263 19.0548 332.753 17.5658 332.753 15.7289C332.753 13.8921 331.263 12.4031 329.426 12.4031C327.589 12.4031 326.1 13.8921 326.1 15.7289C326.1 17.5658 327.589 19.0548 329.426 19.0548Z" fill="white" stroke="#1C1C1D"/>
<path fill-rule="evenodd" clip-rule="evenodd" d="M2.00017 374.882C2.00017 374.882 2.00727 375.323 2.00017 375.632C1.97113 376.898 5.60703 383 27.4009 383C27.4009 383 604.083 383 627.62 383C651.157 383 653.969 376.414 654 375.632C653.969 375.172 654 375.6 654 374.882C654 374.882 469.828 374.821 377.718 374.882C346.412 374.903 315.04 374.861 283.734 374.882C252.428 374.903 221.137 374.861 189.831 374.882C127.219 374.924 2.00017 374.882 2.00017 374.882Z" fill="#F95A2C" stroke="#1C1C1D" stroke-width="2"/>
<path fill-rule="evenodd" clip-rule="evenodd" d="M2 363.045V375.262H654V363.045H2Z" fill="#FF785C" stroke="#1C1C1D" stroke-width="2"/>
<path d="M281.785 363.723C281.785 363.723 282.166 369.425 287.058 369.425C287.058 369.425 346.076 369.419 367.904 369.425C369.542 369.425 372.352 368.225 373.342 363.723H282.402" stroke="#1C1C1D" stroke-width="2"/>
<g clip-path="url(#clip0)">
<path d="M493.51 130.805C494.838 131.043 496.098 131.216 497.331 131.5C499.677 132.04 501.222 133.506 501.871 135.826C502.964 139.871 503.395 144.067 503.148 148.251C503.094 149.332 502.946 150.436 502.83 151.631L503.412 151.939C507.761 154.19 511.853 156.91 515.616 160.051C519.254 163.063 521.987 166.83 524.305 170.902C528.345 177.981 531.185 185.503 532.306 193.602C532.769 196.952 532.957 200.361 533.114 203.733C533.715 216.272 534.278 228.812 534.802 241.353C535.009 246.358 535.149 251.372 535.187 256.379C535.232 259.387 534.683 262.374 533.571 265.167C532.078 269.009 529.173 272.129 525.455 273.882C521.416 275.864 516.968 276.859 512.473 276.783C500 276.65 487.523 276.49 475.043 276.302C467.387 276.183 459.734 276.002 452.078 275.832C446.854 275.715 441.673 275.191 436.648 273.668C435.131 273.201 433.658 272.598 432.248 271.868C429.631 270.532 428.155 268.217 427.264 265.489C426.429 262.939 426.024 260.267 426.065 257.583C426.152 252.107 426.375 246.632 426.507 241.156C426.661 234.894 426.791 228.63 426.895 222.366C426.976 217.307 427.067 212.245 427.024 207.184C426.954 199.196 428.349 191.463 430.605 183.835C432.733 176.67 436.016 169.905 440.324 163.807C444.266 158.182 449.418 154.124 455.703 151.471C456.114 151.256 456.545 151.081 456.99 150.947C458.107 150.703 458.366 150.033 458.336 148.948C458.22 144.76 458.471 140.599 459.545 136.524C459.583 136.383 459.623 136.253 459.658 136.096C460.402 133.05 462.323 131.337 465.424 130.959C466.03 130.883 466.636 130.791 467.247 130.77C467.764 130.751 467.958 130.559 467.993 130.023C468.13 127.86 468.181 125.697 468.51 123.564C468.986 120.462 469.625 117.382 470.287 114.316C470.928 111.358 472.848 109.657 475.783 109.1C479.041 108.484 482.3 108.075 485.617 108.681C488.787 109.26 490.839 111.069 491.894 114.089C492.686 116.47 493.126 118.954 493.2 121.463C493.338 124.456 493.381 127.452 493.47 130.448C493.483 130.564 493.51 130.675 493.51 130.805ZM482.057 273.574C483.065 273.574 484.726 273.558 486.39 273.574C495.277 273.679 504.163 273.831 513.028 273.89C516.909 273.918 520.744 273.033 524.224 271.308C527.386 269.761 529.718 267.428 530.889 264.11C531.53 262.301 532.079 260.365 532.149 258.467C532.314 253.932 532.308 249.379 532.125 244.844C531.562 231 530.895 217.161 530.24 203.322C530.108 200.551 529.971 197.771 529.621 195.021C528.727 187.78 526.287 181.042 523.067 174.517C517.877 164.001 509.231 157.482 498.804 153.037C494.84 151.341 490.602 150.454 486.355 149.711C483.245 149.17 480.121 148.691 476.946 149.138C474.649 149.462 472.344 149.746 470.058 150.149C467.828 150.541 465.564 150.884 463.418 151.568C460.796 152.44 458.226 153.458 455.719 154.619C450.785 156.792 446.507 160.231 443.316 164.591C438.894 170.579 435.548 177.297 433.428 184.441C431.206 191.901 429.833 199.464 429.913 207.278C429.965 212.145 429.868 217.012 429.79 221.88C429.691 228.135 429.568 234.395 429.421 240.661C429.286 246.358 429.057 252.053 428.966 257.753C428.924 260.167 429.301 262.57 430.08 264.854C430.743 266.795 431.79 268.463 433.686 269.396C434.842 269.98 436.043 270.472 437.276 270.867C442.54 272.49 447.98 272.882 453.433 273.003C462.761 273.214 472.078 273.376 482.055 273.571L482.057 273.574ZM460.911 149.273C461.053 149.272 461.195 149.259 461.336 149.235C464.966 147.775 468.805 146.904 472.708 146.655C474.388 146.55 476.077 146.098 477.73 146.215C481.282 146.469 484.815 146.993 488.356 147.396C492.094 147.821 495.68 148.851 499.211 150.1C499.456 150.187 499.706 150.252 500.083 150.371C500.151 149.711 500.223 149.159 500.258 148.608C500.514 144.656 500.158 140.688 499.203 136.845C498.933 135.737 498.363 134.801 497.232 134.466C495.217 133.871 493.171 133.428 491.038 133.655C487.999 133.983 484.931 133.954 481.899 133.568C476.603 132.895 471.239 132.973 465.965 133.798C463.598 134.152 462.909 134.777 462.381 137.124C461.96 138.839 461.635 140.577 461.406 142.329C461.139 144.603 461.067 146.899 460.908 149.27L460.911 149.273ZM490.548 130.945C490.58 130.703 490.6 130.46 490.607 130.215C490.51 127.125 490.505 124.023 490.276 120.941C490.103 119.037 489.771 117.151 489.285 115.303C488.746 113.091 487.265 111.828 484.976 111.466C482.068 111.012 479.227 111.398 476.378 111.896C474.604 112.207 473.438 113.161 473.082 114.981C472.401 118.496 471.682 122.011 471.076 125.527C470.807 127.084 470.769 128.682 470.624 130.318C470.828 130.318 470.947 130.318 471.065 130.318C473.947 130.359 476.841 130.237 479.704 130.48C483.021 130.764 486.331 130.97 489.667 130.94L490.548 130.945Z" fill="black"/>
<path d="M482.053 273.571C472.076 273.376 462.759 273.214 453.439 273.003C447.978 272.882 442.538 272.481 437.282 270.867C436.046 270.47 434.843 269.975 433.684 269.388C431.799 268.455 430.741 266.787 430.079 264.845C429.301 262.567 428.924 260.169 428.964 257.761C429.055 252.061 429.284 246.367 429.419 240.669C429.564 234.407 429.686 228.144 429.785 221.879C429.863 217.012 429.96 212.145 429.909 207.278C429.828 199.464 431.202 191.901 433.423 184.44C435.544 177.297 438.89 170.579 443.311 164.591C446.502 160.231 450.78 156.792 455.714 154.618C458.222 153.458 460.792 152.44 463.413 151.568C465.567 150.884 467.824 150.541 470.054 150.149C472.34 149.746 474.645 149.462 476.942 149.138C480.117 148.691 483.241 149.165 486.351 149.711C490.597 150.454 494.836 151.333 498.8 153.037C509.226 157.493 517.873 164.001 523.062 174.517C526.294 181.042 528.717 187.78 529.617 195.021C529.956 197.771 530.104 200.551 530.236 203.322C530.89 217.161 531.558 231 532.121 244.844C532.304 249.379 532.309 253.932 532.145 258.467C532.075 260.359 531.526 262.301 530.885 264.11C529.713 267.428 527.384 269.761 524.22 271.308C520.739 273.033 516.905 273.918 513.023 273.89C504.137 273.831 495.251 273.679 486.386 273.574C484.722 273.555 483.06 273.571 482.053 273.571ZM490.333 265.348V265.17C493.753 265.04 497.179 264.956 500.596 264.772C503.695 264.605 506.789 264.418 509.881 264.075C513.618 263.658 516.287 261.641 517.94 258.231C519.035 255.954 519.804 253.532 520.224 251.039C521.032 246.442 519.637 242.732 515.762 240.096C514.17 239.014 512.479 238.06 510.791 237.122C508.478 235.845 506.1 234.688 503.79 233.406C499.43 230.973 496.15 227.477 493.716 223.08C490.632 217.513 488.537 211.553 486.588 205.539C485.161 201.086 483.709 196.652 481.304 192.596C479.25 189.121 476.476 186.706 472.566 185.565C469.02 184.519 465.503 183.416 461.763 183.364C453.369 183.248 446.715 186.836 441.391 193.136C440.665 194.059 440.105 195.101 439.735 196.216C438.865 198.636 438.636 201.189 438.599 203.744C438.553 206.591 438.653 209.444 438.564 212.289C438.351 218.87 438.294 225.449 438.472 232.027C438.496 232.885 438.399 233.744 438.375 234.602C438.203 240.64 437.942 246.677 437.909 252.718C437.891 256.141 439.703 260.408 444.641 261.641C444.973 261.722 445.299 261.833 445.627 261.912C448.382 262.685 451.223 262.758 454.048 262.993C459.869 263.488 465.678 264.169 471.505 264.548C477.771 264.943 484.056 265.089 490.333 265.348ZM514.585 202.149C514.41 199.845 514.179 197.552 514.074 195.24C513.778 188.363 511.75 181.674 508.179 175.799C506.165 172.427 503.152 169.773 499.562 168.206C498.07 167.533 496.46 167.17 494.841 167.468C491.879 168.009 489.353 169.252 487.781 172.064C486.763 173.879 485.877 175.777 485.971 177.821C486.108 180.85 486.308 183.94 487.048 186.863C488.909 194.416 491.358 201.811 494.373 208.979C495.531 211.696 497.128 214.081 499.371 215.974C502.602 218.71 507.395 219.792 510.681 215.201C510.724 215.138 510.775 215.084 510.815 215.025C513.414 211.131 515.024 206.945 514.585 202.149Z" fill="white"/>
<path d="M460.906 149.27C461.065 146.907 461.138 144.603 461.399 142.318C461.628 140.566 461.953 138.829 462.374 137.113C462.912 134.766 463.591 134.139 465.958 133.787C471.232 132.962 476.596 132.885 481.891 133.558C484.924 133.943 487.991 133.972 491.031 133.644C493.166 133.428 495.213 133.871 497.224 134.455C498.355 134.791 498.918 135.726 499.196 136.835C500.151 140.677 500.507 144.645 500.251 148.597C500.216 149.138 500.144 149.7 500.076 150.36C499.699 150.244 499.449 150.179 499.204 150.09C495.673 148.835 492.087 147.805 488.349 147.386C484.808 146.983 481.275 146.458 477.723 146.204C476.07 146.088 474.381 146.539 472.701 146.645C468.798 146.893 464.959 147.764 461.329 149.224C461.19 149.251 461.048 149.266 460.906 149.27Z" fill="white"/>
<path d="M490.547 130.945H489.647C486.319 130.975 483.009 130.77 479.684 130.486C476.821 130.242 473.926 130.364 471.045 130.324C470.927 130.324 470.808 130.324 470.604 130.324C470.749 128.701 470.787 127.079 471.056 125.532C471.662 122.017 472.381 118.502 473.062 114.987C473.418 113.167 474.584 112.212 476.358 111.901C479.207 111.404 482.048 111.017 484.956 111.472C487.256 111.834 488.726 113.094 489.265 115.308C489.758 117.154 490.097 119.038 490.277 120.941C490.506 124.023 490.512 127.125 490.609 130.215C490.601 130.46 490.58 130.703 490.547 130.945Z" fill="white"/>
<path d="M490.335 265.348C484.058 265.078 477.773 264.943 471.504 264.537C465.677 264.159 459.868 263.477 454.046 262.982C451.222 262.745 448.392 262.672 445.626 261.901C445.297 261.809 444.972 261.698 444.64 261.63C439.704 260.408 437.892 256.141 437.908 252.707C437.941 246.669 438.202 240.632 438.374 234.591C438.398 233.734 438.495 232.874 438.471 232.017C438.296 225.435 438.35 218.857 438.563 212.278C438.652 209.433 438.563 206.581 438.598 203.733C438.635 201.178 438.867 198.626 439.734 196.205C440.104 195.09 440.664 194.048 441.39 193.126C446.714 186.825 453.368 183.237 461.761 183.354C465.502 183.405 469.019 184.508 472.565 185.555C476.475 186.706 479.249 189.121 481.303 192.585C483.708 196.641 485.159 201.081 486.606 205.542C488.555 211.556 490.645 217.515 493.733 223.083C496.157 227.479 499.448 230.965 503.807 233.409C506.11 234.699 508.488 235.843 510.809 237.125C512.497 238.055 514.188 239.004 515.78 240.099C519.655 242.735 521.039 246.456 520.242 251.042C519.822 253.535 519.053 255.957 517.958 258.234C516.305 261.639 513.65 263.661 509.899 264.078C506.815 264.421 503.705 264.618 500.614 264.775C497.196 264.959 493.771 265.046 490.351 265.173L490.335 265.348ZM487.171 262.955C490.421 262.85 493.674 262.79 496.924 262.631C501.05 262.425 505.178 262.198 509.312 261.874C512.443 261.628 514.67 259.981 516.019 257.104C517.121 254.8 517.835 252.328 518.133 249.79C518.464 246.767 517.568 244.201 515.055 242.351C514.185 241.676 513.269 241.063 512.314 240.515C509.697 239.09 507.041 237.727 504.394 236.357C498.671 233.46 494.028 228.791 491.151 223.04C488.361 217.578 486.285 211.851 484.419 206.042C483.027 201.716 481.624 197.425 479.249 193.507C477.547 190.7 475.301 188.716 472.11 187.775C468.919 186.834 465.717 185.787 462.33 185.647C454.52 185.327 448.295 188.537 443.299 194.361C442.527 195.246 441.992 196.313 441.746 197.463C441.266 200.016 440.966 202.6 440.849 205.196C440.693 209.295 440.768 213.4 440.752 217.505C440.741 220.841 440.736 224.176 440.736 227.509C440.736 229.572 440.782 231.638 440.717 233.699C440.537 239.417 440.289 245.134 440.114 250.855C440.066 251.959 440.151 253.065 440.367 254.149C440.876 256.498 442.028 258.402 444.49 259.151C445.658 259.502 446.83 259.908 448.031 260.065C450.503 260.384 452.996 260.519 455.474 260.79C466.011 261.96 476.545 262.899 487.171 262.955Z" fill="black"/>
<path d="M514.587 202.149C515.026 206.946 513.415 211.131 510.817 215.022C510.776 215.082 510.725 215.136 510.682 215.198C507.397 219.795 502.603 218.713 499.372 215.971C497.129 214.079 495.532 211.694 494.374 208.976C491.359 201.808 488.909 194.414 487.047 186.861C486.312 183.938 486.113 180.847 485.97 177.819C485.876 175.774 486.761 173.876 487.779 172.062C489.352 169.252 491.881 168.006 494.84 167.465C496.456 167.168 498.071 167.53 499.561 168.203C503.151 169.77 506.164 172.425 508.178 175.796C511.749 181.671 513.777 188.361 514.072 195.237C514.18 197.547 514.412 199.845 514.587 202.149ZM511.786 203.141C511.517 199.772 511.301 197.498 511.194 195.219C510.918 188.91 509.066 182.773 505.808 177.372C504.122 174.527 501.605 172.27 498.599 170.907C496.243 169.804 493.908 169.796 491.732 171.353C491.189 171.753 490.743 172.272 490.429 172.87C490.023 173.646 489.826 174.525 489.508 175.347C488.928 176.785 488.711 178.345 488.878 179.887C489.147 182.004 489.255 184.17 489.799 186.217C491.743 193.518 493.949 200.74 496.927 207.7C497.792 209.761 499.034 211.642 500.589 213.243C501.758 214.441 503.299 215.204 504.957 215.406C505.765 215.531 506.508 215.374 507.06 214.795C507.833 213.984 508.676 213.173 509.214 212.224C511.013 209.09 512.201 205.764 511.786 203.141Z" fill="black"/>
<path d="M487.17 262.955C476.555 262.909 466.01 261.96 455.473 260.811C452.995 260.541 450.502 260.406 448.03 260.086C446.829 259.93 445.657 259.524 444.489 259.173C442.027 258.424 440.875 256.52 440.366 254.17C440.15 253.087 440.065 251.981 440.113 250.877C440.288 245.155 440.535 239.439 440.716 233.72C440.78 231.66 440.729 229.594 440.735 227.531C440.735 224.192 440.74 220.857 440.751 217.526C440.767 213.422 440.692 209.317 440.848 205.218C440.965 202.622 441.264 200.038 441.745 197.484C441.985 196.332 442.514 195.261 443.282 194.372C448.269 188.54 454.5 185.327 462.312 185.646C465.7 185.787 468.88 186.825 472.093 187.774C475.305 188.724 477.53 190.703 479.237 193.507C481.612 197.425 483.007 201.716 484.407 206.042C486.276 211.851 488.352 217.578 491.139 223.04C494.016 228.791 498.659 233.46 504.383 236.357C507.03 237.727 509.685 239.09 512.302 240.515C513.26 241.062 514.178 241.674 515.052 242.349C517.564 244.198 518.461 246.764 518.129 249.787C517.831 252.326 517.117 254.797 516.016 257.101C514.669 259.986 512.439 261.625 509.308 261.871C505.188 262.196 501.06 262.412 496.921 262.628C493.673 262.79 490.42 262.85 487.17 262.955Z" fill="white"/>
<path d="M511.786 203.141C512.201 205.772 511.016 209.09 509.223 212.24C508.684 213.2 507.833 214.003 507.068 214.811C506.516 215.39 505.773 215.547 504.965 215.422C503.307 215.22 501.766 214.458 500.597 213.259C499.042 211.658 497.8 209.778 496.935 207.716C493.957 200.756 491.752 193.534 489.807 186.233C489.269 184.186 489.142 182.02 488.886 179.903C488.714 178.357 488.927 176.793 489.506 175.35C489.823 174.539 490.02 173.649 490.427 172.873C490.741 172.274 491.186 171.756 491.73 171.356C493.906 169.799 496.24 169.807 498.597 170.91C501.603 172.272 504.119 174.529 505.805 177.375C509.064 182.776 510.916 188.913 511.191 195.221C511.302 197.49 511.53 199.764 511.786 203.141Z" fill="white"/>
<path d="M362.215 225.584C362.366 217.853 362.551 210.123 362.659 202.389C362.724 197.628 362.635 192.866 362.678 188.104C362.71 184.481 362.821 180.858 362.947 177.237C362.967 176.657 363.139 176.091 363.445 175.599C363.658 175.271 364.186 175.058 364.606 174.982C366.612 174.647 368.618 174.265 370.643 174.114C378.905 173.487 387.172 172.886 395.442 172.373C402.308 171.948 409.175 171.691 416.058 171.291C420.601 171.021 425.141 170.672 429.681 170.342C433.237 170.082 436.793 169.812 440.347 169.531C440.875 169.471 441.408 169.538 441.905 169.726C442.401 169.914 442.846 170.218 443.202 170.612C445.935 173.343 448.178 176.475 450.607 179.457C452.169 181.38 453.707 183.329 455.368 185.16C456.378 186.271 456.914 187.412 456.833 188.945C456.399 197.1 456.943 205.247 457.067 213.397C457.188 221.239 457.337 229.08 457.592 236.908C457.81 243.581 458.239 250.249 458.505 256.917C458.755 263.173 458.717 269.428 458.392 275.683C458.123 280.899 458.123 286.128 457.994 291.366C457.95 293.113 457.902 294.86 457.848 296.609C457.839 296.861 457.787 297.11 457.695 297.344C457.642 297.476 457.56 297.594 457.454 297.689C457.349 297.783 457.223 297.852 457.086 297.889C456.95 297.927 456.807 297.932 456.668 297.904C456.529 297.877 456.398 297.818 456.286 297.731C455.999 297.517 455.657 297.39 455.301 297.366C450.33 297.49 445.359 297.612 440.393 297.809C435.928 297.988 431.466 298.247 427.007 298.499C422.715 298.74 418.425 299.04 414.13 299.272C409.835 299.505 405.58 299.648 401.307 299.883C397.806 300.078 394.319 300.354 390.824 300.581C387.233 300.817 383.635 301.045 380.028 301.265C379.926 301.265 379.821 301.265 379.716 301.284C378.795 301.373 378.369 301.046 378.159 300.14C378.121 299.853 378.023 299.577 377.874 299.329C374.723 295.149 371.548 290.987 368.395 286.81C367.18 285.187 366.017 283.549 364.803 281.943C363.534 280.263 363.023 278.338 362.918 276.283C362.737 272.581 362.565 268.877 362.428 265.173C361.997 253.418 362.444 241.648 362.279 229.902C362.261 228.469 362.279 227.036 362.279 225.603L362.215 225.584ZM455.925 241.581C455.827 241.593 455.729 241.612 455.632 241.637C454.113 242.235 452.589 242.827 451.076 243.433C440.15 247.817 429.228 252.203 418.309 256.59C408.087 260.7 398.137 265.386 388.249 270.199C385.688 271.448 383.133 272.709 380.572 273.958C379.923 274.271 379.576 274.691 379.578 275.502C379.578 277.665 379.406 279.842 379.438 282.007C379.506 286.766 379.654 291.523 379.783 296.279C379.804 297.036 379.869 297.796 379.955 298.548C380.058 299.451 380.146 299.518 381.046 299.502C381.549 299.502 382.053 299.467 382.554 299.424C387.422 298.996 392.283 298.466 397.16 298.158C403.983 297.726 410.818 297.474 417.647 297.114C424.977 296.728 432.307 296.274 439.637 295.906C444.287 295.673 448.943 295.543 453.599 295.365C454.388 295.338 455.18 295.365 456.084 295.365C456.084 294.889 456.084 294.411 456.084 293.935C456.181 288.289 456.141 282.637 456.421 277C456.739 270.575 456.86 264.159 456.631 257.734C456.477 253.44 456.262 249.146 456.074 244.852C456.025 243.784 455.969 242.697 455.912 241.575L455.925 241.581ZM379.78 272.425C379.839 272.4 379.953 272.354 380.049 272.3C387.374 268.72 394.618 264.967 402.039 261.606C410.301 257.867 418.697 254.422 427.083 250.966C433.957 248.13 440.899 245.466 447.817 242.724C450.481 241.667 453.138 240.604 455.68 239.593C455.411 226.179 455.12 212.881 454.843 199.526C454.574 199.623 454.393 199.677 454.224 199.75C447.82 202.454 441.416 205.168 435.013 207.892C429.019 210.439 423.084 213.148 417.017 215.512C410.19 218.17 403.208 220.427 396.36 223.042C390.789 225.168 385.319 227.566 379.796 229.837C379.617 229.883 379.46 229.994 379.356 230.148C379.252 230.301 379.207 230.488 379.231 230.673C379.357 234.729 379.425 238.804 379.567 242.868C379.837 250.366 380.001 257.864 379.791 265.365C379.726 267.701 379.78 270.04 379.78 272.425ZM378.111 193.272C378.455 204.988 378.795 216.558 379.137 228.218C379.39 228.115 379.522 228.069 379.648 228.007C386.197 224.762 393.032 222.236 399.871 219.716C406.711 217.196 413.645 214.914 420.377 212.145C431.892 207.386 443.283 202.322 454.743 197.379C454.838 194.58 454.935 191.663 455.034 188.675C454.633 188.675 454.24 188.675 453.847 188.675C450.077 188.821 446.307 188.924 442.537 189.132C438.767 189.34 434.962 189.646 431.176 189.943C426.574 190.292 421.974 190.668 417.375 191.025C413.532 191.287 409.708 191.514 405.885 191.852C402.061 192.19 398.323 192.496 394.521 192.539C390.347 192.588 386.173 192.763 382.002 192.923C380.731 192.971 379.465 193.136 378.111 193.272ZM377.823 295.954C377.832 295.896 377.837 295.838 377.836 295.779C377.378 290.671 377.478 285.552 377.567 280.434C377.699 272.765 377.954 265.1 377.957 257.431C377.957 250.904 377.688 244.374 377.518 237.846C377.386 232.601 377.249 227.358 377.101 222.115C376.864 212.743 376.616 203.371 376.417 193.994C376.398 193.136 376.347 192.436 375.536 191.976C375.307 191.825 375.109 191.63 374.952 191.403C373.571 189.632 372.208 187.847 370.818 186.082C370.436 185.598 369.981 185.176 369.569 184.714C369.464 184.587 369.378 184.446 369.313 184.294C369.183 183.929 369.022 183.575 368.831 183.237C367.563 181.482 366.268 179.746 364.978 178.005C364.905 177.923 364.826 177.847 364.741 177.778L364.536 177.821C364.536 180.705 364.536 183.59 364.536 186.474C364.536 191.909 364.601 197.344 364.536 202.779C364.463 209.225 364.218 215.669 364.167 222.115C364.111 229.296 364.283 236.484 364.167 243.665C364.027 253.362 364.226 263.047 364.528 272.733C364.585 274.561 364.835 276.383 365.067 278.2C365.236 279.495 366.036 280.528 366.787 281.529C370.39 286.342 374.036 291.117 377.669 295.906C377.717 295.933 377.769 295.936 377.823 295.954ZM372.291 184.6L372.208 184.8C373.926 187.169 375.458 189.694 377.863 191.473C378.004 191.541 378.162 191.562 378.315 191.533C381.471 191.284 384.622 190.941 387.783 190.792C393.417 190.522 399.058 190.584 404.692 190.065C413.548 189.254 422.424 188.632 431.299 188.012C437.493 187.58 443.687 187.285 449.894 186.931C451.288 186.85 452.681 186.79 454.121 186.717C454.09 186.641 454.052 186.568 454.008 186.498C452.547 184.762 451.081 183.031 449.611 181.304C449.495 181.175 449.334 181.096 449.161 181.085C448.162 181.085 447.163 181.085 446.167 181.144C442.588 181.371 439.012 181.685 435.433 181.853C432.124 182.018 428.806 182.05 425.494 182.148C423.668 182.199 422.063 181.712 420.8 180.301C420.413 179.886 419.998 179.497 419.559 179.138C419.155 178.768 418.678 178.488 418.158 178.316C417.639 178.145 417.089 178.086 416.545 178.143C412.142 178.597 407.739 179.048 403.337 179.495C402.26 179.603 401.398 179.971 400.685 180.906C399.99 181.826 399.115 182.592 398.113 183.157C397.111 183.721 396.003 184.073 394.86 184.189C392.975 184.408 391.055 184.513 389.149 184.543C385.037 184.608 380.925 184.595 376.813 184.608C375.31 184.605 373.802 184.6 372.291 184.6ZM447.772 179.089C447.809 179.011 447.847 178.933 447.887 178.857C446.078 176.677 444.247 174.514 442.472 172.308C441.783 171.448 440.967 171.337 439.962 171.445C437.73 171.683 435.492 171.867 433.254 172.027C429.258 172.31 425.261 172.574 421.263 172.819C415.086 173.205 408.909 173.571 402.734 173.919C399.131 174.125 395.525 174.257 391.925 174.482C387.194 174.774 382.465 175.115 377.736 175.447C374.755 175.655 371.793 175.866 368.831 176.101C367.91 176.174 366.995 176.345 365.993 176.48L366.321 176.929C367.63 178.627 368.985 180.295 370.226 182.042C370.743 182.775 371.23 182.988 372.149 182.961C377.265 182.799 382.381 182.775 387.498 182.667C389.639 182.623 391.777 182.518 393.912 182.396C395.017 182.36 396.098 182.068 397.072 181.545C398.046 181.021 398.887 180.279 399.529 179.376C399.855 178.907 400.28 178.515 400.774 178.23C401.268 177.944 401.819 177.771 402.387 177.724C407.121 177.218 411.855 176.715 416.591 176.242C418.282 176.072 419.707 176.745 420.948 177.848C421.56 178.389 422.122 179.003 422.777 179.49C423.2 179.819 423.699 180.034 424.228 180.114C425.418 180.238 426.614 180.282 427.81 180.247C431.981 180.106 436.157 179.96 440.323 179.73C442.811 179.617 445.289 179.311 447.772 179.089Z" fill="black"/>
<path d="M455.911 241.575C455.968 242.697 456.024 243.784 456.073 244.869C456.261 249.163 456.477 253.456 456.63 257.75C456.859 264.175 456.738 270.591 456.42 277.016C456.151 282.654 456.181 288.305 456.084 293.951C456.084 294.427 456.084 294.905 456.084 295.381C455.179 295.381 454.387 295.357 453.598 295.381C448.942 295.549 444.286 295.679 439.636 295.922C432.306 296.29 424.976 296.733 417.646 297.131C410.817 297.49 403.983 297.742 397.159 298.174C392.282 298.483 387.422 299.013 382.553 299.44C382.052 299.483 381.549 299.51 381.045 299.518C380.146 299.535 380.057 299.467 379.954 298.564C379.868 297.812 379.804 297.052 379.782 296.295C379.653 291.539 379.513 286.783 379.437 282.024C379.405 279.861 379.586 277.697 379.578 275.518C379.578 274.707 379.922 274.288 380.571 273.974C383.129 272.725 385.688 271.465 388.248 270.216C398.137 265.394 408.087 260.708 418.295 256.593C429.21 252.191 440.132 247.805 451.061 243.436C452.575 242.83 454.099 242.238 455.618 241.64C455.714 241.612 455.812 241.591 455.911 241.575Z" fill="white"/>
<path d="M379.781 272.425C379.781 270.04 379.727 267.701 379.781 265.365C379.991 257.864 379.821 250.366 379.558 242.868C379.415 238.812 379.348 234.737 379.221 230.673C379.197 230.488 379.242 230.301 379.346 230.148C379.45 229.994 379.607 229.883 379.786 229.837C385.307 227.566 390.779 225.168 396.35 223.042C403.198 220.427 410.18 218.175 417.007 215.512C423.074 213.148 429.009 210.439 435.003 207.892C441.405 205.175 447.808 202.461 454.214 199.75C454.383 199.677 454.564 199.623 454.833 199.526C455.102 212.881 455.39 226.179 455.671 239.593C453.129 240.604 450.471 241.667 447.807 242.724C440.898 245.466 433.956 248.132 427.073 250.966C418.69 254.422 410.294 257.866 402.029 261.606C394.608 264.967 387.364 268.72 380.04 272.3C379.953 272.362 379.84 272.4 379.781 272.425ZM426.281 233.52C426.75 233.704 427.046 233.79 427.326 233.931C428.047 234.269 428.758 234.626 429.48 234.969C430.129 235.278 430.651 235.167 430.902 234.672C431.152 234.177 430.95 233.728 430.336 233.393C429.545 232.96 428.75 232.528 427.929 232.16C426.619 231.543 425.208 231.169 423.766 231.054C423.227 231.019 422.743 231.13 422.492 231.657C422.223 232.225 422.476 232.679 422.893 233.06C423.311 233.442 423.688 233.744 424.078 234.096C424.951 234.877 425.274 235.9 424.865 236.954C424.522 237.875 424.004 238.72 423.34 239.442C422.57 240.253 421.571 240.834 420.648 241.494C419.98 241.973 419.754 242.462 420.031 242.954C420.308 243.446 420.86 243.546 421.595 243.203C422.934 242.585 424.123 241.68 425.077 240.553C426.795 238.514 427.746 236.316 426.281 233.52ZM439.538 229.835C440.311 229.607 441.046 229.48 441.692 229.186C443.243 228.488 443.911 226.917 443.308 225.433C442.629 223.732 441.234 222.907 439.538 222.677C437.841 222.447 436.191 222.877 434.998 224.3C434.767 224.55 434.613 224.861 434.554 225.197C434.494 225.532 434.531 225.877 434.661 226.192C434.85 226.666 435.2 226.966 435.738 226.849C436.277 226.733 436.422 226.355 436.422 225.854C436.428 225.597 436.531 225.351 436.71 225.168C437.89 224.172 440.13 224.386 441.129 225.557C441.797 226.341 441.614 227.179 440.626 227.466C439.957 227.632 439.268 227.704 438.579 227.68C437.324 227.68 436.761 228.445 437.198 229.607C437.445 230.27 437.564 230.981 437.839 231.63C437.976 231.952 438.31 232.349 438.606 232.398C438.793 232.398 438.978 232.354 439.145 232.27C439.313 232.187 439.459 232.066 439.573 231.917C439.772 231.63 439.772 231.168 439.767 230.784C439.727 230.46 439.65 230.141 439.538 229.835ZM404.447 245.493C404.673 245.529 404.901 245.543 405.129 245.536C405.832 245.458 406.569 245.461 407.221 245.231C408.734 244.69 409.303 243.157 408.546 241.737C408.176 241.024 407.648 240.407 407.001 239.933C406.355 239.458 405.608 239.141 404.819 239.004C404.315 238.891 403.792 238.887 403.287 238.992C402.781 239.097 402.303 239.308 401.884 239.612C401.481 239.933 401.177 240.363 401.009 240.85C400.969 240.966 400.953 241.089 400.962 241.212C400.971 241.334 401.005 241.453 401.063 241.562C401.12 241.67 401.198 241.766 401.294 241.843C401.389 241.919 401.499 241.976 401.617 242.008C402.107 242.197 402.439 241.962 402.762 241.597C402.967 241.35 403.235 241.163 403.537 241.056C404.48 240.786 405.285 241.159 405.939 241.8C406.262 242.116 406.443 242.581 406.685 242.976C406.238 243.092 405.786 243.308 405.339 243.298C404.633 243.276 403.933 243.084 403.228 242.995C402.083 242.849 401.396 243.738 401.787 244.831C401.975 245.372 402.132 245.912 402.304 246.453C402.46 246.937 402.762 247.264 403.29 247.281C403.535 247.293 403.777 247.215 403.968 247.06C404.16 246.906 404.288 246.686 404.329 246.442C404.389 246.129 404.428 245.812 404.447 245.493ZM395.052 249.803L395.079 249.887C395.73 249.764 396.372 249.594 396.999 249.379C397.468 249.204 397.868 248.882 398.14 248.461C398.412 248.039 398.541 247.541 398.507 247.04C398.483 246.329 398.295 245.633 397.959 245.007C397.622 244.381 397.146 243.841 396.568 243.43C395.375 242.54 394.005 242.889 392.715 243.087C392.284 243.154 391.821 243.652 391.568 244.071C390.057 246.545 391.331 249.254 394.174 249.706C394.468 249.755 394.761 249.771 395.052 249.803ZM411.158 236.459C410.113 236.53 409.114 236.665 408.269 237.289C408.15 237.368 408.048 237.47 407.969 237.589C407.891 237.708 407.837 237.842 407.812 237.983C407.787 238.124 407.79 238.268 407.822 238.407C407.855 238.546 407.915 238.678 407.999 238.793C408.083 238.909 408.189 239.006 408.312 239.079C408.435 239.152 408.572 239.198 408.713 239.214C408.855 239.231 408.998 239.217 409.135 239.175C409.271 239.133 409.397 239.062 409.505 238.969C409.771 238.762 410.081 238.62 410.41 238.552C410.74 238.484 411.08 238.493 411.406 238.576C412.214 238.728 412.639 239.388 412.938 240.112C413.055 240.377 413.076 240.675 412.999 240.954C412.921 241.233 412.749 241.477 412.512 241.643C411.792 242.206 411.043 242.729 410.267 243.211C409.935 243.425 409.526 243.514 409.19 243.719C408.772 243.974 408.541 244.431 408.78 244.85C409.022 245.168 409.353 245.405 409.731 245.531C409.927 245.615 410.224 245.507 410.463 245.442C411.954 245.043 413.281 244.183 414.257 242.984C415.251 241.791 415.512 240.475 414.796 239.058C414.018 237.565 412.895 236.546 411.158 236.459ZM390.776 250.655C390.655 248.714 390.049 246.991 388.439 245.772C387.777 245.277 386.968 245.022 386.144 245.048C385.32 245.073 384.528 245.378 383.898 245.912C383.258 246.453 383.031 247.205 383.295 247.881C383.356 248.085 383.484 248.263 383.658 248.384C383.832 248.506 384.042 248.565 384.254 248.551C384.457 248.561 384.657 248.493 384.813 248.361C384.969 248.229 385.069 248.043 385.094 247.84C385.175 247.343 385.501 247.216 385.921 247.143C386.231 247.086 386.551 247.116 386.845 247.229C387.14 247.343 387.397 247.536 387.59 247.786C388.697 249.03 388.937 251.537 387.835 252.626C387.717 252.767 387.629 252.93 387.576 253.105C387.522 253.281 387.505 253.466 387.526 253.648C387.644 254.46 388.525 254.681 389.252 254.124C390.375 253.256 390.684 252.004 390.776 250.655ZM447.517 224.87C447.474 227.174 449.644 229.059 451.825 228.718C452.192 228.675 452.539 228.524 452.82 228.283C453.102 228.042 453.305 227.723 453.406 227.366C453.495 227.159 453.508 226.928 453.443 226.713C453.377 226.497 453.237 226.313 453.048 226.192C452.959 226.124 452.857 226.075 452.748 226.047C452.64 226.02 452.527 226.015 452.416 226.033C452.306 226.05 452.2 226.09 452.105 226.15C452.011 226.21 451.929 226.289 451.866 226.382C451.54 226.784 451.203 226.722 450.805 226.587C450.102 226.355 449.528 225.995 449.496 225.165C449.458 224.229 449.612 223.342 450.446 222.756C450.716 222.564 451.004 222.485 451.225 222.899C451.269 222.99 451.331 223.072 451.407 223.139C451.483 223.206 451.571 223.258 451.667 223.291C451.763 223.324 451.864 223.337 451.965 223.331C452.066 223.324 452.165 223.298 452.256 223.253C452.458 223.183 452.627 223.04 452.731 222.853C452.836 222.665 452.868 222.446 452.822 222.236C452.788 221.918 452.657 221.617 452.448 221.376C452.238 221.134 451.96 220.962 451.65 220.884C450.557 220.528 449.625 220.884 448.836 221.655C447.912 222.564 447.606 223.732 447.517 224.87ZM444.046 222.104C444.116 222.945 444.116 223.561 444.231 224.159C444.595 226.035 444.975 227.909 445.411 229.77C445.429 229.903 445.474 230.031 445.544 230.145C445.614 230.259 445.707 230.358 445.817 230.434C445.927 230.511 446.051 230.563 446.183 230.588C446.314 230.614 446.449 230.611 446.58 230.581C447.075 230.465 447.371 229.986 447.277 229.337C447.188 228.798 447.072 228.263 446.927 227.736C446.41 225.692 445.887 223.648 446.025 221.517C446.057 221.003 446.367 220.511 446.477 219.995C446.547 219.657 446.623 219.159 446.445 218.973C446.267 218.786 445.637 218.616 445.419 218.759C444.983 219.033 444.647 219.441 444.46 219.922C444.266 220.637 444.127 221.367 444.046 222.104ZM430.657 225.503C429.918 225.7 429.191 225.939 428.478 226.217C428.097 226.429 427.785 226.748 427.579 227.133C427.523 227.224 427.486 227.325 427.47 227.431C427.453 227.536 427.458 227.644 427.483 227.748C427.508 227.852 427.553 227.949 427.616 228.035C427.678 228.122 427.757 228.195 427.848 228.25C428.249 228.537 428.629 228.445 428.987 228.123C429.172 227.927 429.392 227.768 429.636 227.655C431.028 227.152 432.273 227.474 433.377 228.423C433.512 228.519 433.61 228.659 433.653 228.819C433.697 228.98 433.683 229.151 433.614 229.302C433.57 229.473 433.568 229.652 433.606 229.824C433.645 229.997 433.723 230.158 433.834 230.294C433.985 230.388 434.154 230.449 434.33 230.472C434.506 230.495 434.685 230.479 434.855 230.427C435.186 230.306 435.458 230.063 435.617 229.748C435.775 229.432 435.807 229.067 435.706 228.729C435.544 228.167 435.262 227.647 434.879 227.206C433.864 226.125 432.55 225.611 430.657 225.503ZM436.182 235.096C436.06 234.636 435.908 234.185 435.727 233.744C434.814 231.916 433.506 230.315 431.898 229.059C431.687 228.887 431.439 228.766 431.174 228.707C430.968 228.649 430.748 228.673 430.559 228.773C430.371 228.874 430.228 229.044 430.161 229.248C429.997 229.675 430.161 230.002 430.501 230.3C431.113 230.805 431.69 231.352 432.227 231.938C433.175 233.02 434.112 234.147 434.209 235.708C434.21 235.815 434.234 235.921 434.279 236.019C434.323 236.116 434.387 236.204 434.467 236.276C434.546 236.348 434.64 236.402 434.741 236.436C434.843 236.47 434.95 236.482 435.057 236.473C435.388 236.43 435.717 236.113 435.972 235.848C436.112 235.705 436.102 235.416 436.182 235.096ZM385.218 251.272L385.347 251.439C385.078 251.864 384.809 252.294 384.518 252.705C384.13 253.262 384.106 253.762 384.518 254.124C384.97 254.533 385.444 254.43 385.891 254.105C386.585 253.587 387.064 252.831 387.238 251.98C387.362 251.554 387.351 251.099 387.206 250.68C387.062 250.26 386.79 249.896 386.43 249.638C385.681 249.13 384.44 249.098 383.737 249.557C383.521 249.675 383.358 249.87 383.279 250.104C383.2 250.337 383.212 250.592 383.311 250.817C383.508 251.312 383.915 251.472 384.44 251.358C384.697 251.315 384.957 251.286 385.218 251.272ZM400.607 244.782C400.567 244.578 400.508 244.378 400.432 244.184C399.856 243.135 399.304 242.073 398.663 241.064C398.55 240.939 398.408 240.843 398.249 240.787C398.09 240.73 397.92 240.714 397.753 240.74C397.589 240.81 397.442 240.913 397.321 241.043C397.199 241.174 397.106 241.328 397.048 241.497C396.991 241.826 397.053 242.164 397.223 242.451C397.651 243.292 398.127 244.111 398.609 244.923C398.718 245.154 398.898 245.344 399.124 245.463C399.422 245.583 399.753 245.594 400.058 245.493C400.309 245.369 400.449 245.004 400.607 244.782Z" fill="white"/>
<path d="M378.111 193.272C379.458 193.147 380.731 192.972 382.002 192.923C386.174 192.763 390.35 192.588 394.521 192.539C398.324 192.496 402.102 192.182 405.885 191.852C409.669 191.522 413.541 191.287 417.367 190.995C421.967 190.643 426.566 190.268 431.168 189.913C434.954 189.629 438.738 189.324 442.529 189.102C446.321 188.881 450.069 188.791 453.839 188.645C454.232 188.645 454.626 188.645 455.027 188.645C454.927 191.633 454.83 194.551 454.736 197.349C443.275 202.292 431.885 207.354 420.37 212.116C413.638 214.895 406.704 217.175 399.864 219.687C393.024 222.199 386.198 224.773 379.649 228.018C379.522 228.08 379.38 228.126 379.137 228.229C378.795 216.558 378.456 204.988 378.111 193.272Z" fill="white"/>
<path d="M377.823 295.955C377.769 295.936 377.716 295.933 377.694 295.906C374.061 291.117 370.423 286.342 366.812 281.529C366.061 280.529 365.261 279.496 365.092 278.2C364.855 276.383 364.604 274.561 364.553 272.733C364.251 263.047 364.052 253.362 364.192 243.665C364.295 236.484 364.122 229.297 364.192 222.115C364.243 215.669 364.488 209.225 364.561 202.779C364.623 197.344 364.561 191.909 364.561 186.474C364.561 183.59 364.561 180.706 364.561 177.821L364.766 177.778C364.851 177.847 364.93 177.923 365.003 178.005C366.293 179.747 367.588 181.483 368.856 183.237C369.047 183.575 369.208 183.929 369.338 184.295C369.403 184.446 369.489 184.587 369.594 184.714C370.006 185.176 370.461 185.598 370.843 186.082C372.233 187.848 373.596 189.632 374.977 191.403C375.134 191.63 375.332 191.825 375.561 191.977C376.369 192.436 376.423 193.137 376.442 193.994C376.641 203.363 376.889 212.735 377.126 222.115C377.26 227.358 377.411 232.601 377.543 237.847C377.708 244.374 377.985 250.904 377.982 257.431C377.982 265.1 377.713 272.765 377.592 280.434C377.503 285.553 377.403 290.671 377.861 295.779C377.854 295.838 377.841 295.897 377.823 295.955Z" fill="white"/>
<path d="M372.292 184.6C373.803 184.6 375.311 184.6 376.822 184.6C380.933 184.587 385.045 184.6 389.157 184.535C391.064 184.506 392.976 184.4 394.869 184.181C396.012 184.065 397.119 183.713 398.122 183.149C399.124 182.584 399.999 181.818 400.694 180.898C401.407 179.963 402.258 179.595 403.346 179.487C407.75 179.053 412.152 178.602 416.554 178.135C417.098 178.078 417.648 178.137 418.167 178.308C418.687 178.48 419.164 178.76 419.568 179.13C420.007 179.489 420.422 179.878 420.809 180.293C422.072 181.704 423.677 182.186 425.503 182.14C428.815 182.042 432.132 182.01 435.442 181.845C439.021 181.669 442.597 181.364 446.175 181.136C447.172 181.072 448.171 181.077 449.17 181.077C449.342 181.088 449.504 181.167 449.62 181.296C451.093 183.021 452.559 184.752 454.017 186.49C454.061 186.56 454.099 186.633 454.13 186.709C452.689 186.782 451.297 186.842 449.902 186.923C443.709 187.274 437.502 187.569 431.308 188.004C422.422 188.624 413.557 189.237 404.7 190.057C399.067 190.576 393.426 190.519 387.792 190.784C384.631 190.933 381.48 191.276 378.324 191.525C378.171 191.554 378.012 191.533 377.872 191.466C375.448 189.686 373.927 187.161 372.217 184.792L372.292 184.6Z" fill="white"/>
<path d="M447.772 179.089C445.289 179.311 442.812 179.603 440.323 179.738C436.155 179.968 431.976 180.114 427.81 180.255C426.614 180.29 425.418 180.246 424.228 180.122C423.7 180.042 423.2 179.827 422.777 179.498C422.123 179.011 421.56 178.4 420.949 177.856C419.707 176.753 418.283 176.08 416.592 176.25C411.855 176.723 407.121 177.226 402.387 177.732C401.82 177.779 401.27 177.95 400.776 178.234C400.282 178.518 399.857 178.908 399.53 179.376C398.886 180.281 398.044 181.024 397.068 181.548C396.092 182.073 395.008 182.364 393.902 182.399C391.766 182.523 389.628 182.629 387.487 182.669C382.371 182.778 377.255 182.802 372.138 182.964C371.22 182.991 370.733 182.778 370.216 182.045C368.974 180.298 367.62 178.63 366.311 176.932L365.982 176.483C366.984 176.348 367.9 176.177 368.821 176.104C371.783 175.864 374.761 175.653 377.731 175.444C382.46 175.112 387.188 174.771 391.92 174.479C395.52 174.255 399.126 174.122 402.729 173.917C408.906 173.565 415.083 173.198 421.258 172.816C425.258 172.569 429.255 172.305 433.249 172.024C435.487 171.864 437.725 171.681 439.957 171.443C440.962 171.334 441.778 171.443 442.467 172.305C444.242 174.512 446.073 176.675 447.882 178.854C447.847 178.933 447.81 179.011 447.772 179.089Z" fill="white"/>
<path d="M426.28 233.52C427.744 236.316 426.794 238.514 425.073 240.55C424.119 241.678 422.93 242.582 421.591 243.2C420.856 243.544 420.302 243.438 420.027 242.951C419.752 242.465 419.976 241.97 420.644 241.491C421.559 240.832 422.558 240.245 423.336 239.439C424 238.717 424.518 237.872 424.86 236.951C425.27 235.897 424.947 234.875 424.074 234.093C423.684 233.742 423.266 233.412 422.889 233.058C422.512 232.703 422.216 232.222 422.488 231.654C422.739 231.127 423.223 231.016 423.762 231.051C425.207 231.165 426.62 231.54 427.933 232.157C428.754 232.525 429.549 232.968 430.34 233.39C430.954 233.726 431.148 234.201 430.906 234.669C430.664 235.137 430.133 235.275 429.484 234.967C428.765 234.623 428.054 234.266 427.33 233.928C427.044 233.799 426.748 233.696 426.28 233.52Z" fill="white"/>
<path d="M439.538 229.835C439.649 230.14 439.726 230.458 439.766 230.781C439.766 231.165 439.766 231.627 439.573 231.914C439.459 232.063 439.313 232.184 439.145 232.268C438.977 232.351 438.793 232.395 438.606 232.395C438.31 232.347 437.976 231.949 437.838 231.627C437.569 230.978 437.445 230.275 437.197 229.605C436.761 228.442 437.324 227.671 438.579 227.677C439.268 227.701 439.956 227.629 440.625 227.463C441.614 227.193 441.797 226.338 441.129 225.554C440.13 224.383 437.898 224.17 436.71 225.165C436.53 225.349 436.427 225.596 436.422 225.854C436.408 226.357 436.258 226.736 435.743 226.844C435.229 226.952 434.86 226.66 434.666 226.187C434.537 225.872 434.499 225.527 434.559 225.191C434.619 224.856 434.773 224.544 435.003 224.294C436.196 222.883 437.801 222.45 439.543 222.672C441.285 222.894 442.645 223.726 443.313 225.427C443.905 226.912 443.237 228.483 441.697 229.18C441.046 229.48 440.31 229.607 439.538 229.835Z" fill="white"/>
<path d="M404.446 245.493C404.428 245.814 404.39 246.133 404.33 246.448C404.29 246.691 404.161 246.911 403.97 247.066C403.778 247.22 403.537 247.299 403.291 247.286C402.752 247.286 402.462 246.943 402.305 246.459C402.133 245.918 401.977 245.377 401.788 244.836C401.398 243.755 402.085 242.854 403.229 243C403.935 243.09 404.635 243.271 405.34 243.303C405.785 243.303 406.237 243.098 406.687 242.981C406.444 242.587 406.264 242.122 405.941 241.805C405.286 241.164 404.481 240.791 403.539 241.062C403.237 241.168 402.969 241.355 402.763 241.602C402.44 241.967 402.109 242.203 401.619 242.013C401.501 241.981 401.391 241.925 401.295 241.848C401.2 241.772 401.121 241.676 401.064 241.568C401.007 241.459 400.973 241.34 400.963 241.217C400.954 241.095 400.97 240.972 401.01 240.856C401.179 240.368 401.482 239.939 401.885 239.618C402.304 239.314 402.782 239.103 403.288 238.998C403.794 238.893 404.316 238.897 404.821 239.009C405.609 239.146 406.356 239.464 407.003 239.938C407.649 240.412 408.178 241.03 408.547 241.743C409.304 243.163 408.736 244.698 407.223 245.237C406.571 245.466 405.833 245.464 405.13 245.542C404.901 245.547 404.672 245.531 404.446 245.493Z" fill="white"/>
<path d="M395.052 249.803C394.761 249.771 394.468 249.755 394.18 249.709C391.336 249.257 390.062 246.548 391.573 244.074C391.826 243.655 392.289 243.157 392.72 243.089C394.01 242.884 395.381 242.549 396.574 243.433C397.149 243.843 397.622 244.38 397.957 245.003C398.293 245.626 398.481 246.319 398.507 247.026C398.541 247.527 398.412 248.026 398.14 248.447C397.868 248.869 397.468 249.191 396.999 249.365C396.372 249.585 395.731 249.76 395.079 249.887L395.052 249.803ZM394.92 247.586C395.093 247.586 395.216 247.586 395.343 247.559C396.334 247.462 396.528 247.14 396.086 246.256C395.922 245.926 395.725 245.499 395.432 245.372C394.848 245.16 394.242 245.016 393.625 244.942C393.525 244.925 393.356 245.055 393.286 245.163C393.134 245.377 393.04 245.627 393.014 245.888C392.988 246.149 393.03 246.412 393.138 246.652C393.245 246.891 393.412 247.098 393.624 247.252C393.836 247.406 394.084 247.502 394.344 247.529C394.549 247.559 394.759 247.57 394.92 247.586Z" fill="white"/>
<path d="M411.157 236.459C412.894 236.546 414.016 237.565 414.779 239.058C415.503 240.475 415.242 241.791 414.24 242.984C413.263 244.183 411.936 245.043 410.446 245.442C410.206 245.507 409.907 245.615 409.713 245.531C409.335 245.405 409.004 245.168 408.763 244.85C408.523 244.431 408.763 243.974 409.172 243.719C409.509 243.514 409.918 243.425 410.249 243.211C411.025 242.729 411.775 242.205 412.495 241.643C412.732 241.477 412.904 241.233 412.981 240.954C413.059 240.675 413.037 240.377 412.92 240.112C412.622 239.388 412.207 238.728 411.388 238.576C411.063 238.493 410.724 238.485 410.395 238.553C410.067 238.621 409.758 238.763 409.493 238.969C409.385 239.062 409.259 239.133 409.123 239.175C408.986 239.217 408.843 239.231 408.701 239.214C408.56 239.197 408.423 239.151 408.3 239.079C408.177 239.006 408.071 238.909 407.987 238.793C407.903 238.678 407.843 238.546 407.81 238.407C407.778 238.268 407.775 238.124 407.8 237.983C407.825 237.842 407.878 237.708 407.957 237.589C408.036 237.47 408.137 237.368 408.256 237.289C409.113 236.67 410.112 236.53 411.157 236.459Z" fill="white"/>
<path d="M390.775 250.655C390.683 252.007 390.382 253.256 389.251 254.124C388.524 254.681 387.635 254.449 387.524 253.648C387.504 253.466 387.521 253.281 387.574 253.105C387.628 252.93 387.716 252.767 387.834 252.626C388.946 251.545 388.696 249.03 387.589 247.786C387.396 247.536 387.139 247.343 386.844 247.23C386.55 247.116 386.23 247.086 385.92 247.143C385.499 247.216 385.174 247.343 385.093 247.84C385.068 248.043 384.968 248.229 384.812 248.361C384.656 248.493 384.456 248.561 384.253 248.551C384.041 248.565 383.831 248.506 383.657 248.384C383.482 248.263 383.355 248.085 383.294 247.881C383.025 247.205 383.256 246.464 383.897 245.912C384.527 245.378 385.319 245.073 386.143 245.048C386.967 245.022 387.776 245.277 388.437 245.772C390.048 246.991 390.643 248.714 390.775 250.655Z" fill="white"/>
<path d="M447.517 224.87C447.605 223.732 447.912 222.564 448.831 221.653C449.62 220.874 450.551 220.525 451.645 220.882C451.954 220.96 452.233 221.131 452.442 221.373C452.652 221.615 452.782 221.915 452.816 222.234C452.862 222.443 452.83 222.663 452.726 222.85C452.622 223.038 452.453 223.18 452.251 223.251C452.067 223.336 451.856 223.345 451.666 223.275C451.475 223.206 451.32 223.064 451.233 222.88C451.012 222.472 450.724 222.545 450.454 222.737C449.62 223.324 449.466 224.21 449.504 225.146C449.536 225.976 450.11 226.336 450.813 226.568C451.211 226.704 451.548 226.766 451.874 226.363C451.937 226.27 452.019 226.192 452.113 226.132C452.208 226.072 452.314 226.032 452.424 226.014C452.535 225.996 452.648 226.001 452.756 226.029C452.865 226.056 452.967 226.105 453.056 226.174C453.245 226.294 453.385 226.479 453.451 226.694C453.516 226.909 453.503 227.141 453.414 227.347C453.313 227.704 453.11 228.023 452.828 228.264C452.547 228.505 452.2 228.656 451.833 228.699C449.644 229.059 447.463 227.174 447.517 224.87Z" fill="white"/>
<path d="M444.045 222.104C444.126 221.365 444.265 220.634 444.46 219.916C444.647 219.436 444.983 219.028 445.418 218.754C445.644 218.61 446.226 218.754 446.444 218.967C446.662 219.181 446.547 219.651 446.477 219.989C446.366 220.506 446.056 220.998 446.024 221.512C445.887 223.643 446.409 225.687 446.926 227.731C447.071 228.258 447.188 228.792 447.276 229.332C447.371 229.981 447.074 230.459 446.579 230.576C446.449 230.606 446.313 230.608 446.182 230.583C446.051 230.558 445.926 230.505 445.816 230.429C445.706 230.353 445.613 230.254 445.543 230.14C445.473 230.025 445.428 229.897 445.41 229.764C444.974 227.904 444.602 226.03 444.231 224.154C444.115 223.561 444.115 222.945 444.045 222.104Z" fill="white"/>
<path d="M430.656 225.503C432.541 225.611 433.863 226.122 434.884 227.206C435.267 227.647 435.549 228.167 435.711 228.729C435.812 229.067 435.78 229.432 435.621 229.748C435.463 230.063 435.191 230.306 434.86 230.427C434.69 230.479 434.511 230.495 434.335 230.472C434.159 230.449 433.99 230.388 433.839 230.294C433.728 230.158 433.649 229.997 433.611 229.825C433.573 229.652 433.575 229.473 433.618 229.302C433.687 229.151 433.702 228.98 433.658 228.82C433.615 228.659 433.517 228.519 433.381 228.423C432.277 227.474 431.033 227.152 429.641 227.655C429.397 227.769 429.177 227.927 428.992 228.123C428.634 228.445 428.254 228.537 427.853 228.25C427.762 228.195 427.683 228.122 427.62 228.036C427.558 227.949 427.513 227.852 427.488 227.748C427.463 227.644 427.458 227.536 427.475 227.431C427.491 227.326 427.528 227.224 427.584 227.133C427.79 226.748 428.102 226.429 428.483 226.217C429.194 225.939 429.919 225.701 430.656 225.503Z" fill="white"/>
<path d="M436.181 235.096C436.1 235.415 436.111 235.705 435.971 235.845C435.715 236.116 435.387 236.427 435.055 236.47C434.949 236.48 434.841 236.467 434.74 236.433C434.638 236.399 434.545 236.345 434.465 236.273C434.386 236.201 434.322 236.114 434.277 236.016C434.233 235.918 434.209 235.812 434.207 235.705C434.102 234.145 433.173 233.028 432.225 231.936C431.689 231.35 431.112 230.802 430.499 230.297C430.16 229.999 429.996 229.672 430.16 229.245C430.227 229.041 430.369 228.871 430.558 228.771C430.747 228.67 430.967 228.646 431.172 228.704C431.438 228.764 431.686 228.884 431.897 229.056C433.504 230.312 434.812 231.913 435.726 233.742C435.907 234.183 436.059 234.636 436.181 235.096Z" fill="white"/>
<path d="M385.217 251.272C384.961 251.286 384.706 251.314 384.453 251.355C383.928 251.472 383.521 251.312 383.324 250.815C383.225 250.589 383.213 250.335 383.292 250.101C383.371 249.868 383.534 249.673 383.75 249.555C384.445 249.084 385.686 249.127 386.443 249.636C386.803 249.893 387.074 250.257 387.219 250.677C387.364 251.097 387.375 251.551 387.25 251.977C387.077 252.828 386.598 253.585 385.904 254.103C385.457 254.427 384.983 254.53 384.531 254.122C384.127 253.759 384.151 253.259 384.531 252.702C384.819 252.291 385.085 251.861 385.36 251.436L385.217 251.272Z" fill="white"/>
<path d="M400.606 244.782C400.45 244.993 400.31 245.358 400.068 245.48C399.763 245.58 399.432 245.57 399.133 245.45C398.908 245.331 398.727 245.141 398.619 244.909C398.137 244.098 397.66 243.287 397.232 242.438C397.063 242.151 397.001 241.812 397.057 241.483C397.116 241.315 397.209 241.16 397.33 241.03C397.452 240.9 397.599 240.796 397.763 240.726C397.929 240.7 398.1 240.717 398.259 240.773C398.417 240.83 398.56 240.925 398.673 241.051C399.314 242.059 399.866 243.122 400.442 244.171C400.515 244.37 400.57 244.574 400.606 244.782Z" fill="white"/>
<path d="M394.92 247.586C394.758 247.57 394.548 247.559 394.343 247.529C394.084 247.502 393.835 247.406 393.624 247.252C393.412 247.098 393.244 246.891 393.137 246.652C393.03 246.412 392.987 246.149 393.013 245.888C393.039 245.626 393.133 245.377 393.285 245.163C393.352 245.055 393.525 244.925 393.624 244.942C394.241 245.016 394.847 245.16 395.431 245.371C395.725 245.499 395.921 245.926 396.086 246.256C396.527 247.14 396.333 247.462 395.342 247.559C395.221 247.573 395.092 247.575 394.92 247.586Z" fill="white"/>
</g>
<rect x="99.8945" y="44.7114" width="300.338" height="44.6617" rx="10" fill="white" stroke="#1C1C1D" stroke-width="2"/>
<rect x="114.15" y="52.3135" width="30.414" height="30.408" rx="15.204" fill="white" stroke="#1C1C1D"/>
<path d="M135.694 74.6443V73.0606C135.694 72.2205 135.36 71.4148 134.766 70.8208C134.172 70.2268 133.366 69.8931 132.526 69.8931H126.19C125.349 69.8931 124.544 70.2268 123.949 70.8208C123.355 71.4148 123.021 72.2205 123.021 73.0606V74.6443" stroke="#1C1C1D" stroke-width="2" stroke-linecap="round" stroke-linejoin="round"/>
<path d="M129.358 66.7256C131.107 66.7256 132.526 65.3075 132.526 63.5581C132.526 61.8088 131.107 60.3906 129.358 60.3906C127.608 60.3906 126.189 61.8088 126.189 63.5581C126.189 65.3075 127.608 66.7256 129.358 66.7256Z" stroke="#1C1C1D" stroke-width="2" stroke-linecap="round" stroke-linejoin="round"/>
<path d="M155.851 64.0024C156.025 64.0631 156.159 64.1628 156.254 64.3014C156.35 64.4401 156.397 64.6091 156.397 64.8084C156.397 65.0684 156.315 65.2808 156.15 65.4454C155.986 65.6101 155.782 65.6924 155.539 65.6924C155.288 65.6924 155.08 65.6101 154.915 65.4454C154.751 65.2721 154.668 65.0598 154.668 64.8084C154.668 64.6871 154.681 64.5658 154.707 64.4444C154.742 64.3144 154.807 64.1281 154.902 63.8854L155.513 62.0654H156.332L155.851 64.0024ZM158.308 64.0024C158.482 64.0631 158.616 64.1628 158.711 64.3014C158.807 64.4401 158.854 64.6091 158.854 64.8084C158.854 65.0684 158.772 65.2808 158.607 65.4454C158.443 65.6101 158.239 65.6924 157.996 65.6924C157.745 65.6924 157.537 65.6101 157.372 65.4454C157.208 65.2721 157.125 65.0598 157.125 64.8084C157.125 64.6871 157.138 64.5658 157.164 64.4444C157.199 64.3144 157.264 64.1281 157.359 63.8854L157.97 62.0654H158.789L158.308 64.0024ZM165.313 71.8154C164.403 71.8154 163.579 71.6161 162.843 71.2174C162.115 70.8101 161.543 70.2554 161.127 69.5534C160.711 68.8428 160.503 68.0454 160.503 67.1614C160.503 66.2774 160.711 65.4844 161.127 64.7824C161.543 64.0718 162.119 63.5171 162.856 63.1184C163.592 62.7111 164.416 62.5074 165.326 62.5074C166.036 62.5074 166.686 62.6288 167.276 62.8714C167.865 63.1054 168.368 63.4564 168.784 63.9244L167.939 64.7434C167.254 64.0241 166.4 63.6644 165.378 63.6644C164.702 63.6644 164.091 63.8161 163.545 64.1194C162.999 64.4228 162.57 64.8431 162.258 65.3804C161.954 65.9091 161.803 66.5028 161.803 67.1614C161.803 67.8201 161.954 68.4181 162.258 68.9554C162.57 69.4841 162.999 69.9001 163.545 70.2034C164.091 70.5068 164.702 70.6584 165.378 70.6584C166.392 70.6584 167.245 70.2944 167.939 69.5664L168.784 70.3854C168.368 70.8534 167.861 71.2088 167.263 71.4514C166.673 71.6941 166.023 71.8154 165.313 71.8154ZM170.856 62.0654H172.104V71.7114H170.856V62.0654ZM181.114 68.3054C181.114 68.4008 181.105 68.5264 181.088 68.6824H175.498C175.576 69.2891 175.84 69.7788 176.291 70.1514C176.75 70.5154 177.318 70.6974 177.994 70.6974C178.817 70.6974 179.48 70.4201 179.983 69.8654L180.672 70.6714C180.36 71.0354 179.97 71.3128 179.502 71.5034C179.043 71.6941 178.527 71.7894 177.955 71.7894C177.227 71.7894 176.581 71.6421 176.018 71.3474C175.455 71.0441 175.017 70.6238 174.705 70.0864C174.402 69.5491 174.25 68.9424 174.25 68.2664C174.25 67.5991 174.397 66.9968 174.692 66.4594C174.995 65.9221 175.407 65.5061 175.927 65.2114C176.456 64.9081 177.049 64.7564 177.708 64.7564C178.367 64.7564 178.952 64.9081 179.463 65.2114C179.983 65.5061 180.386 65.9221 180.672 66.4594C180.967 66.9968 181.114 67.6121 181.114 68.3054ZM177.708 65.8094C177.11 65.8094 176.607 65.9914 176.2 66.3554C175.801 66.7194 175.567 67.1961 175.498 67.7854H179.918C179.849 67.2048 179.61 66.7324 179.203 66.3684C178.804 65.9958 178.306 65.8094 177.708 65.8094ZM185.565 64.7564C186.519 64.7564 187.247 64.9904 187.749 65.4584C188.261 65.9264 188.516 66.6241 188.516 67.5514V71.7114H187.333V70.8014C187.125 71.1221 186.826 71.3691 186.436 71.5424C186.055 71.7071 185.6 71.7894 185.071 71.7894C184.3 71.7894 183.68 71.6031 183.212 71.2304C182.753 70.8578 182.523 70.3681 182.523 69.7614C182.523 69.1548 182.744 68.6694 183.186 68.3054C183.628 67.9328 184.33 67.7464 185.292 67.7464H187.268V67.4994C187.268 66.9621 187.112 66.5504 186.8 66.2644C186.488 65.9784 186.029 65.8354 185.422 65.8354C185.015 65.8354 184.616 65.9048 184.226 66.0434C183.836 66.1734 183.507 66.3511 183.238 66.5764L182.718 65.6404C183.074 65.3544 183.498 65.1378 183.992 64.9904C184.486 64.8344 185.011 64.7564 185.565 64.7564ZM185.279 70.8274C185.756 70.8274 186.168 70.7234 186.514 70.5154C186.861 70.2988 187.112 69.9954 187.268 69.6054V68.6434H185.344C184.287 68.6434 183.758 68.9988 183.758 69.7094C183.758 70.0561 183.893 70.3291 184.161 70.5284C184.43 70.7278 184.803 70.8274 185.279 70.8274ZM194.905 64.7564C195.78 64.7564 196.474 65.0121 196.985 65.5234C197.505 66.0261 197.765 66.7671 197.765 67.7464V71.7114H196.517V67.8894C196.517 67.2221 196.357 66.7194 196.036 66.3814C195.715 66.0434 195.256 65.8744 194.658 65.8744C193.982 65.8744 193.449 66.0738 193.059 66.4724C192.669 66.8624 192.474 67.4258 192.474 68.1624V71.7114H191.226V64.8214H192.422V65.8614C192.673 65.5061 193.011 65.2331 193.436 65.0424C193.869 64.8518 194.359 64.7564 194.905 64.7564ZM206.74 68.3054C206.74 68.4008 206.731 68.5264 206.714 68.6824H201.124C201.202 69.2891 201.466 69.7788 201.917 70.1514C202.376 70.5154 202.944 70.6974 203.62 70.6974C204.443 70.6974 205.106 70.4201 205.609 69.8654L206.298 70.6714C205.986 71.0354 205.596 71.3128 205.128 71.5034C204.668 71.6941 204.153 71.7894 203.581 71.7894C202.853 71.7894 202.207 71.6421 201.644 71.3474C201.08 71.0441 200.643 70.6238 200.331 70.0864C200.027 69.5491 199.876 68.9424 199.876 68.2664C199.876 67.5991 200.023 66.9968 200.318 66.4594C200.621 65.9221 201.033 65.5061 201.553 65.2114C202.081 64.9081 202.675 64.7564 203.334 64.7564C203.992 64.7564 204.577 64.9081 205.089 65.2114C205.609 65.5061 206.012 65.9221 206.298 66.4594C206.592 66.9968 206.74 67.6121 206.74 68.3054ZM203.334 65.8094C202.736 65.8094 202.233 65.9914 201.826 66.3554C201.427 66.7194 201.193 67.1961 201.124 67.7854H205.544C205.474 67.2048 205.236 66.7324 204.829 66.3684C204.43 65.9958 203.932 65.8094 203.334 65.8094ZM210.069 65.9784C210.285 65.5798 210.606 65.2764 211.031 65.0684C211.455 64.8604 211.971 64.7564 212.578 64.7564V65.9654C212.508 65.9568 212.413 65.9524 212.292 65.9524C211.616 65.9524 211.083 66.1561 210.693 66.5634C210.311 66.9621 210.121 67.5341 210.121 68.2794V71.7114H208.873V64.8214H210.069V65.9784ZM222.37 71.3084C222.188 71.4644 221.963 71.5858 221.694 71.6724C221.425 71.7504 221.148 71.7894 220.862 71.7894C220.169 71.7894 219.631 71.6031 219.25 71.2304C218.869 70.8578 218.678 70.3248 218.678 69.6314V65.8484H217.508V64.8214H218.678V63.3134H219.926V64.8214H221.902V65.8484H219.926V69.5794C219.926 69.9521 220.017 70.2381 220.199 70.4374C220.39 70.6368 220.658 70.7364 221.005 70.7364C221.386 70.7364 221.711 70.6281 221.98 70.4114L222.37 71.3084ZM227.958 64.7564C228.833 64.7564 229.526 65.0121 230.038 65.5234C230.558 66.0261 230.818 66.7671 230.818 67.7464V71.7114H229.57V67.8894C229.57 67.2221 229.409 66.7194 229.089 66.3814C228.768 66.0434 228.309 65.8744 227.711 65.8744C227.035 65.8744 226.502 66.0738 226.112 66.4724C225.722 66.8624 225.527 67.4258 225.527 68.1624V71.7114H224.279V62.0654H225.527V65.7964C225.787 65.4671 226.125 65.2114 226.541 65.0294C226.965 64.8474 227.438 64.7564 227.958 64.7564ZM236.036 64.7564C236.99 64.7564 237.718 64.9904 238.22 65.4584C238.732 65.9264 238.987 66.6241 238.987 67.5514V71.7114H237.804V70.8014C237.596 71.1221 237.297 71.3691 236.907 71.5424C236.526 71.7071 236.071 71.7894 235.542 71.7894C234.771 71.7894 234.151 71.6031 233.683 71.2304C233.224 70.8578 232.994 70.3681 232.994 69.7614C232.994 69.1548 233.215 68.6694 233.657 68.3054C234.099 67.9328 234.801 67.7464 235.763 67.7464H237.739V67.4994C237.739 66.9621 237.583 66.5504 237.271 66.2644C236.959 65.9784 236.5 65.8354 235.893 65.8354C235.486 65.8354 235.087 65.9048 234.697 66.0434C234.307 66.1734 233.978 66.3511 233.709 66.5764L233.189 65.6404C233.545 65.3544 233.969 65.1378 234.463 64.9904C234.957 64.8344 235.482 64.7564 236.036 64.7564ZM235.75 70.8274C236.227 70.8274 236.639 70.7234 236.985 70.5154C237.332 70.2988 237.583 69.9954 237.739 69.6054V68.6434H235.815C234.758 68.6434 234.229 68.9988 234.229 69.7094C234.229 70.0561 234.364 70.3291 234.632 70.5284C234.901 70.7278 235.274 70.8274 235.75 70.8274ZM245.376 64.7564C246.251 64.7564 246.945 65.0121 247.456 65.5234C247.976 66.0261 248.236 66.7671 248.236 67.7464V71.7114H246.988V67.8894C246.988 67.2221 246.828 66.7194 246.507 66.3814C246.186 66.0434 245.727 65.8744 245.129 65.8744C244.453 65.8744 243.92 66.0738 243.53 66.4724C243.14 66.8624 242.945 67.4258 242.945 68.1624V71.7114H241.697V64.8214H242.893V65.8614C243.144 65.5061 243.482 65.2331 243.907 65.0424C244.34 64.8518 244.83 64.7564 245.376 64.7564ZM263.456 64.7564C264.322 64.7564 265.007 65.0078 265.51 65.5104C266.021 66.0131 266.277 66.7584 266.277 67.7464V71.7114H265.029V67.8894C265.029 67.2221 264.873 66.7194 264.561 66.3814C264.257 66.0434 263.82 65.8744 263.248 65.8744C262.615 65.8744 262.112 66.0738 261.74 66.4724C261.367 66.8624 261.181 67.4258 261.181 68.1624V71.7114H259.933V67.8894C259.933 67.2221 259.777 66.7194 259.465 66.3814C259.161 66.0434 258.724 65.8744 258.152 65.8744C257.519 65.8744 257.016 66.0738 256.644 66.4724C256.271 66.8624 256.085 67.4258 256.085 68.1624V71.7114H254.837V64.8214H256.033V65.8484C256.284 65.4931 256.613 65.2244 257.021 65.0424C257.428 64.8518 257.892 64.7564 258.412 64.7564C258.949 64.7564 259.426 64.8648 259.842 65.0814C260.258 65.2981 260.578 65.6144 260.804 66.0304C261.064 65.6318 261.423 65.3198 261.883 65.0944C262.351 64.8691 262.875 64.7564 263.456 64.7564ZM274.943 64.8214L271.602 72.4004C271.307 73.1024 270.961 73.5964 270.562 73.8824C270.172 74.1684 269.7 74.3114 269.145 74.3114C268.807 74.3114 268.478 74.2551 268.157 74.1424C267.845 74.0384 267.585 73.8824 267.377 73.6744L267.91 72.7384C268.265 73.0764 268.677 73.2454 269.145 73.2454C269.448 73.2454 269.7 73.1631 269.899 72.9984C270.107 72.8424 270.293 72.5694 270.458 72.1794L270.679 71.6984L267.637 64.8214H268.937L271.342 70.3334L273.721 64.8214H274.943ZM289.018 64.7564C289.885 64.7564 290.569 65.0078 291.072 65.5104C291.583 66.0131 291.839 66.7584 291.839 67.7464V71.7114L290.591 71.7114V67.8894C290.591 67.2221 290.435 66.7194 290.123 66.3814C289.82 66.0434 289.382 65.8744 288.81 65.8744C288.177 65.8744 287.675 66.0738 287.302 66.4724C286.929 66.8624 286.743 67.4258 286.743 68.1624V71.7114H285.495V67.8894C285.495 67.2221 285.339 66.7194 285.027 66.3814C284.724 66.0434 284.286 65.8744 283.714 65.8744C283.081 65.8744 282.579 66.0738 282.206 66.4724C281.833 66.8624 281.647 67.4258 281.647 68.1624V71.7114H280.399V64.8214H281.595V65.8484C281.846 65.4931 282.176 65.2244 282.583 65.0424C282.99 64.8518 283.454 64.7564 283.974 64.7564C284.511 64.7564 284.988 64.8648 285.404 65.0814C285.82 65.2981 286.141 65.6144 286.366 66.0304C286.626 65.6318 286.986 65.3198 287.445 65.0944C287.913 64.8691 288.437 64.7564 289.018 64.7564ZM297.524 71.7894C296.84 71.7894 296.224 71.6378 295.678 71.3344C295.132 71.0311 294.703 70.6151 294.391 70.0864C294.088 69.5491 293.936 68.9424 293.936 68.2664C293.936 67.5904 294.088 66.9881 294.391 66.4594C294.703 65.9221 295.132 65.5061 295.678 65.2114C296.224 64.9081 296.84 64.7564 297.524 64.7564C298.209 64.7564 298.82 64.9081 299.357 65.2114C299.903 65.5061 300.328 65.9221 300.631 66.4594C300.943 66.9881 301.099 67.5904 301.099 68.2664C301.099 68.9424 300.943 69.5491 300.631 70.0864C300.328 70.6151 299.903 71.0311 299.357 71.3344C298.82 71.6378 298.209 71.7894 297.524 71.7894ZM297.524 70.6974C297.966 70.6974 298.361 70.5978 298.707 70.3984C299.063 70.1904 299.34 69.9044 299.539 69.5404C299.739 69.1678 299.838 68.7431 299.838 68.2664C299.838 67.7898 299.739 67.3694 299.539 67.0054C299.34 66.6328 299.063 66.3468 298.707 66.1474C298.361 65.9481 297.966 65.8484 297.524 65.8484C297.082 65.8484 296.684 65.9481 296.328 66.1474C295.982 66.3468 295.704 66.6328 295.496 67.0054C295.297 67.3694 295.197 67.7898 295.197 68.2664C295.197 68.7431 295.297 69.1678 295.496 69.5404C295.704 69.9044 295.982 70.1904 296.328 70.3984C296.684 70.5978 297.082 70.6974 297.524 70.6974ZM311.844 64.7564C312.711 64.7564 313.396 65.0078 313.898 65.5104C314.41 66.0131 314.665 66.7584 314.665 67.7464V71.7114H313.417V67.8894C313.417 67.2221 313.261 66.7194 312.949 66.3814C312.646 66.0434 312.208 65.8744 311.636 65.8744C311.004 65.8744 310.501 66.0738 310.128 66.4724C309.756 66.8624 309.569 67.4258 309.569 68.1624V71.7114H308.321V67.8894C308.321 67.2221 308.165 66.7194 307.853 66.3814C307.55 66.0434 307.112 65.8744 306.54 65.8744C305.908 65.8744 305.405 66.0738 305.032 66.4724C304.66 66.8624 304.473 67.4258 304.473 68.1624V71.7114H303.225V64.8214H304.421V65.8484C304.673 65.4931 305.002 65.2244 305.409 65.0424C305.817 64.8518 306.28 64.7564 306.8 64.7564C307.338 64.7564 307.814 64.8648 308.23 65.0814C308.646 65.2981 308.967 65.6144 309.192 66.0304C309.452 65.6318 309.812 65.3198 310.271 65.0944C310.739 64.8691 311.264 64.7564 311.844 64.7564ZM317.193 62.6114H318.662L318.415 68.8384H317.427L317.193 62.6114ZM317.934 71.7894C317.691 71.7894 317.487 71.7114 317.323 71.5554C317.158 71.3908 317.076 71.1914 317.076 70.9574C317.076 70.7234 317.158 70.5284 317.323 70.3724C317.487 70.2078 317.691 70.1254 317.934 70.1254C318.176 70.1254 318.376 70.2078 318.532 70.3724C318.688 70.5284 318.766 70.7234 318.766 70.9574C318.766 71.1914 318.683 71.3908 318.519 71.5554C318.363 71.7114 318.168 71.7894 317.934 71.7894ZM321.59 61.9874C321.833 61.9874 322.032 62.0741 322.188 62.2474C322.353 62.4121 322.435 62.6201 322.435 62.8714C322.435 63.0014 322.422 63.1314 322.396 63.2614C322.37 63.3828 322.314 63.5604 322.227 63.7944L321.603 65.6144H320.784L321.265 63.6774C321.101 63.6168 320.966 63.5171 320.862 63.3784C320.767 63.2311 320.719 63.0621 320.719 62.8714C320.719 62.6114 320.802 62.3991 320.966 62.2344C321.131 62.0698 321.339 61.9874 321.59 61.9874ZM324.047 61.9874C324.29 61.9874 324.489 62.0741 324.645 62.2474C324.81 62.4121 324.892 62.6201 324.892 62.8714C324.892 63.0014 324.879 63.1314 324.853 63.2614C324.827 63.3828 324.771 63.5604 324.684 63.7944L324.06 65.6144H323.241L323.722 63.6774C323.558 63.6168 323.423 63.5171 323.319 63.3784C323.224 63.2311 323.176 63.0621 323.176 62.8714C323.176 62.6114 323.259 62.3991 323.423 62.2344C323.588 62.0698 323.796 61.9874 324.047 61.9874Z" fill="#1C1C1D"/>
<path d="M385.895 67.2115C385.898 68.5313 385.59 69.8333 384.995 71.0115C384.289 72.4232 383.204 73.6106 381.862 74.4407C380.52 75.2708 378.973 75.7108 377.395 75.7115C376.075 75.7149 374.773 75.4065 373.595 74.8115L367.895 76.7115L369.795 71.0115C369.199 69.8333 368.891 68.5313 368.895 67.2115C368.895 65.6332 369.335 64.0863 370.165 62.744C370.995 61.4017 372.183 60.317 373.595 59.6115C374.773 59.0164 376.075 58.708 377.395 58.7115H377.895C379.979 58.8264 381.948 59.7062 383.424 61.1823C384.9 62.6584 385.78 64.6271 385.895 66.7115V67.2115Z" stroke="#1C1C1D" stroke-width="2" stroke-linecap="round" stroke-linejoin="round"/>
<rect x="99.8945" y="101.726" width="289.883" height="12.3532" rx="6.17662" fill="white" stroke="#1C1C1D" stroke-width="1.40149"/>
<rect x="99.8945" y="118.831" width="274.676" height="12.3532" rx="6.17662" fill="white" stroke="#1C1C1D" stroke-width="1.40149"/>
<rect x="99.8945" y="135.935" width="199.592" height="12.3532" rx="6.17661" fill="white" stroke="#1C1C1D" stroke-width="1.40149"/>
<defs>
<clipPath id="clip0">
<rect width="172.98" height="192.9" fill="white" transform="translate(362.215 108.378)"/>
</clipPath>
</defs>
</svg>
