<svg width="667" height="611" viewBox="0 0 667 611" fill="none" xmlns="http://www.w3.org/2000/svg">
<path d="M1 14.3657C1 9.28755 5.32618 5.19618 10.4355 5.36304C139.339 9.57295 231.648 6.87975 322.51 4.22876C326.28 4.11878 330.047 4.00888 333.814 3.89954C428.376 1.15487 522.957 -1.2318 657.297 4.57934C662.116 4.7878 666 8.76674 666 13.5641V596.539C666 601.61 661.709 605.695 656.612 605.543C531.554 601.82 435.458 604.42 342.404 606.937C337.464 607.071 332.532 607.204 327.606 607.337C229.877 609.96 133.993 612.114 9.63979 606.326C4.83853 606.103 1 602.135 1 597.346V14.3657Z" fill="#FFB0BC" stroke="#1C1C1D" stroke-width="2"/>
</svg>
