<svg width="343" height="252" viewBox="0 0 343 252" fill="none" xmlns="http://www.w3.org/2000/svg">
<path d="M10.3443 1.35057C92.2536 4.00407 152.09 3.12163 218.67 2.13974C253.207 1.63041 289.558 1.09431 331.746 1.01112C337.134 1.0005 341.338 5.68585 340.754 11.0436C339.018 26.9487 335.97 56.609 334.9 77.9751C332.161 132.641 338.415 211.915 340.974 240.912C341.447 246.28 337.093 250.879 331.683 250.774C230.797 248.824 176.754 249.464 116.58 250.177C85.2279 250.548 52.2113 250.939 10.0377 250.994C5.06343 251 1 246.966 1 242V10.3588C1 5.2678 5.2459 1.1854 10.3443 1.35057Z" fill="white" stroke="#1C1C1D" stroke-width="2"/>
</svg>
