<svg width="19" height="18" viewBox="0 0 19 18" fill="none" xmlns="http://www.w3.org/2000/svg">
<path d="M8.15518 0.847742C8.45898 -0.0641591 9.74884 -0.0641589 10.0526 0.847742L11.5234 5.26238C11.6595 5.6708 12.0416 5.9463 12.4721 5.9463H17.1773C18.1521 5.9463 18.5508 7.19866 17.7555 7.76223L13.9923 10.4288C13.633 10.6833 13.4825 11.143 13.6217 11.5608L15.0692 15.9056C15.3747 16.8225 14.3309 17.5964 13.5423 17.0376L9.68207 14.3023C9.3357 14.0569 8.87212 14.0569 8.52576 14.3023L4.66549 17.0376C3.87692 17.5964 2.83312 16.8225 3.1386 15.9056L4.5861 11.5608C4.72528 11.143 4.57481 10.6833 4.21552 10.4288L0.452355 7.76223C-0.342988 7.19866 0.0557392 5.9463 1.03051 5.9463H5.73569C6.16618 5.9463 6.54836 5.6708 6.68443 5.26238L8.15518 0.847742Z" fill="#19FFE3"/>
</svg>
